<svg aria-hidden="true" style="position: absolute; width: 0; height: 0; overflow: hidden;" version="1.1" xmlns="http://www.w3.org/2000/svg" xmlns:xlink="http://www.w3.org/1999/xlink">
<defs>
<symbol id="icon-person" viewBox="0 0 26 32">
<path d="M24.955 18.358s0 0.064-0.006 0.175c-0.070-2.229-0.906-3.482-1.435-4.853-0.772-2.148-0.943-4.699-0.923-6.598 0.377-0.172 0.634-0.545 0.635-0.978v-1.543c-0.001-0.423-0.246-0.789-0.603-0.963l-0.006-0.003 0.064-0.478h0.268c0.342-0.006 0.342-0.515 0-0.52h-0.198l0.050-0.371h0.331c0.342-0.006 0.342-0.515 0-0.52h-0.262c0.007-0.039 0.010-0.085 0.010-0.131 0-0.459-0.37-0.831-0.828-0.835h-1.071c-0.458 0.004-0.828 0.376-0.828 0.835 0 0.046 0.004 0.092 0.011 0.136l-0.001-0.005h-0.224c-0.342 0.006-0.342 0.515 0 0.52h0.295l0.050 0.371h-0.162c-0.342 0.006-0.342 0.515 0 0.52h0.232l0.050 0.371h-1.049c-0.427 0.001-0.773 0.347-0.774 0.774v1.182c0.001 0.427 0.347 0.774 0.774 0.774h0.458c0.042 0.37 0.266 0.679 0.579 0.839l0.006 0.003c-1.412 2.229-3.557 2.63-4.894 2.634 0.098-0.231 0.471-1.8-0.235-1.482-1.703 1.038-2.84 0.013-4.454 1.211q-0.057-0.179-0.119-0.351c1.164-0.762 0.517-2.525-0.852-2.327-0.036-0.238-0.129-0.476-0.15-0.712-0.006-0.037-0.009-0.079-0.009-0.123 0-0.31 0.172-0.579 0.426-0.718l0.004-0.002c0.449-0.252 0.911-0.027 1.261 0.415-0.324 0.618 0.168 1.415 0.87 1.397 1.133-0.021 1.331-1.6 0.252-1.906-0.114-0.486-0.367-1.282-0.89-1.923-1.248-1.591-3.904-0.824-4.185 1.148-1.986-2.942-5.402-2.176-6.083 0.324-1.149 0.229-1.009 1.898 0.172 1.924 0.528-0.001 0.957-0.422 0.969-0.947l0-0.001c0.452-0.392 0.784-0.569 0.986-0.527 0.372 0.045 0.761 1.233 1.073 1.727-1.9-0.122-2.828 1.52-2.897 1.646-0.78 1.404-0.325 3.196-0.054 3.991-0.54 0.605-0.083 1.613 0.736 1.602 1.006-0.002 1.334-1.358 0.459-1.825-0.098-1.066 0.508-3.223 2.129-2.327 0.086 0.048 0.186 0.084 0.292 0.104l0.006 0.001c-0.479 1.19 0.857 2.226 1.917 1.505 0.070 0.070 0.139 0.141 0.213 0.207-0.937 0.436-1.612 1.271-1.772 2.33-0.109 0.692-0.448 1.597-1.441 1.98-0.080 0.031-0.139 0.099-0.159 0.182l-0 0.002c-0.087 0.235 0.443 0.664 1.376 0.824-0.385 1.119-0.844 2.668-1.040 4.162-0.012 0.089-0.019 0.192-0.019 0.297 0 0.827 0.431 1.553 1.081 1.965l0.009 0.006c0.927 0.65 3.807 1.235 5.075 1.367 0.065 0.013 0.139 0.021 0.215 0.021 0.041 0 0.081-0.002 0.121-0.006l-0.005 0h6.312c0.144 0 0.26-0.116 0.26-0.26 0-0 0-0 0-0v0-1.719c0.017-0.238 0.215-3.388-0.89-6.696 0.479-0.225 0.89-0.507 1.247-0.845l-0.002 0.002c0.051-0.048 0.083-0.115 0.083-0.19 0-0.115-0.075-0.213-0.179-0.247l-0.002-0.001c-0.701-0.274-1.27-0.756-1.646-1.37l-0.008-0.015c0.137-0.082 0.253-0.163 0.363-0.249l-0.008 0.006c1.466-0.095 2.719-0.544 3.739-1.337-0.24 1.036-0.569 1.945-0.993 2.8l0.033-0.074c-0.319 0.516-0.849 2.060-0.984 3.699 0 0-1.095 5.976 3.454 5.976 0-0 4.164 0.271 3.393-5.977zM19.808 5.7h-0.451c-0.14-0-0.254-0.114-0.254-0.254v-1.182c0-0.14 0.114-0.254 0.254-0.254h0.451zM12.698 6.034c-0.016 0.593-0.885 0.593-0.9 0 0.016-0.594 0.885-0.594 0.9-0zM2.327 13.541c-0.593-0.016-0.593-0.885 0-0.9 0.594 0.016 0.594 0.885 0 0.9zM10.703 7.651c0.051 0.097 0.081 0.213 0.081 0.335 0 0.237-0.112 0.447-0.285 0.582l-0.002 0.001c-0.209-0.485-0.448-0.902-0.729-1.288l0.013 0.019c0.079-0.032 0.172-0.051 0.268-0.051 0.284 0 0.53 0.161 0.652 0.397l0.002 0.004zM1.513 6.051c-0.593-0.016-0.593-0.885 0-0.9 0.594 0.016 0.593 0.885 0 0.9zM4.798 6.2c-0.599-1.386-1.117-2.23-2.47-1.125-0.11-0.169-0.267-0.299-0.452-0.374l-0.007-0.002c0.227-0.704 0.893-1.888 2.796-1.728 2.061 0.173 3.514 3.638 3.839 4.483l-1.629 1.124c-0.407-0.319-1.567-1.29-2.076-2.377zM6.724 11.147c-0.736 0.393-1.459-0.549-0.882-1.157 0.311 0.425 0.612 0.796 0.93 1.15l-0.012-0.013zM6.237 9.65l3.068-2.116c0.424 0.558 0.783 1.291 1.042 2.135 0.478 1.593-1.477 2.795-2.684 1.646-0.512-0.503-0.98-1.047-1.401-1.628l-0.026-0.037zM7.384 20.679c0.096-0.559 0.222-1.047 0.383-1.519l-0.020 0.068c0.63-0.207 1.158-0.582 1.546-1.073l0.005-0.007c0.059 0.238 0.093 0.511 0.093 0.793 0 0.349-0.053 0.686-0.15 1.003l0.006-0.024c-0.008 0.023-0.012 0.050-0.012 0.078 0 0.072 0.029 0.136 0.076 0.183v0c0.194 0.17 0.37 0.026 0.816-0.167 0.061 0.6 0.103 1.209 0.126 1.819l-1.338-0.163c-0.028-0.004-0.776-0.112-1.33-0.421-0.186-0.104-0.235-0.369-0.201-0.571zM10.748 24.335c-0.302-0.001-1.063-0.104-1.942-0.295-0.048-0.317-0.112-1.087 0.226-1.83l1.307 0.159c0.287 0.034 0.514 0.252 0.562 0.532l0.001 0.004 0.158 0.915c0.010 0.034 0.016 0.073 0.016 0.114 0 0.197-0.139 0.362-0.324 0.401l-0.003 0zM15.501 13.167c-0.094 0.041-0.159 0.133-0.159 0.241 0 0.042 0.010 0.081 0.027 0.116l-0.001-0.002c0.373 0.733 0.951 1.316 1.658 1.686l0.021 0.010c-2.030 1.589-4.142 0.409-4.235 0.356-0.037-0.022-0.082-0.035-0.13-0.035-0.138 0-0.251 0.107-0.26 0.243l-0 0.001c-0.145 2.34-1.756 3.4-2.558 3.785 0.031-0.187 0.049-0.403 0.049-0.622 0-0.537-0.107-1.048-0.301-1.515l0.010 0.026c-0.042-0.090-0.132-0.152-0.236-0.152-0.094 0-0.177 0.050-0.223 0.126l-0.001 0.001c-0.75 1.257-1.855 1.448-2.45 1.45 0.397-0.642 0.661-1.407 0.734-2.226l0.001-0.020c0-0.004 0-0.008 0-0.012 0-0.144-0.117-0.26-0.26-0.26-0.025 0-0.050 0.004-0.073 0.010l0.002-0c-1.24 0.352-2 0.143-2.386-0.054 2.086-1.342 0.545-3.26 3.124-4.246 0.131 0.065 0.285 0.121 0.445 0.158l0.014 0.003c0.445 0.934 1.557 2.513 3.742 2.793 0.141-0.001 0.255-0.112 0.26-0.252v-0c0.003-0.107 0.059-2.606-1.411-4.264 0.021-0.111 0.032-0.239 0.032-0.37 0-0.049-0.002-0.098-0.005-0.147l0 0.007c0.528-0.477 1.264-0.749 1.939-0.714 0.078 0.004 0.17 0.007 0.262 0.007 0.732 0 1.427-0.16 2.052-0.446l-0.031 0.013c-0.083 1.013-0.786 1.768-0.794 1.776-0.044 0.047-0.071 0.11-0.071 0.179 0 0.098 0.054 0.184 0.134 0.229l0.001 0.001c0.948 0.514 1.991 0.566 2.559 0.547-0.308 0.684-0.824 1.229-1.467 1.566l-0.018 0.009zM20.524 20.333h1.985c0.059 0 0.107 0.048 0.107 0.107v0 0.252c-0 0.059-0.048 0.107-0.107 0.107v0h-1.985c-0.059-0-0.107-0.048-0.107-0.107v0-0.252c0-0 0-0 0-0 0-0.059 0.048-0.107 0.107-0.107v0zM20.888 15.151v-6.709l0.369-0.1v6.749c-0.142 0.015-0.267 0.036-0.39 0.064l0.021-0.004zM21.257 19.11v0.703h-0.294v-0.763c0.082 0.025 0.182 0.046 0.284 0.059l0.010 0.001zM22.071 19.050v0.763h-0.294v-0.703c0.112-0.015 0.212-0.036 0.308-0.064l-0.014 0.004zM21.777 15.091v-6.926l0.369-0.1v7.086c-0.102-0.024-0.227-0.046-0.355-0.059l-0.014-0.001zM20.982 1.26h1.070c0.171 0.001 0.308 0.139 0.308 0.31 0 0.014-0.001 0.028-0.003 0.041l0-0.002-0.252 1.879h-1.176l-0.082-0.609c0.001-0.008 0.002-0.018 0.002-0.028 0-0.032-0.006-0.062-0.018-0.089l0.001 0.002-0.156-1.155c-0.002-0.012-0.003-0.026-0.003-0.040 0-0.171 0.138-0.309 0.308-0.31h0zM20.328 6.058h1.189c0.001 0 0.003 0 0.004 0 0.144 0 0.26-0.117 0.26-0.26s-0.116-0.26-0.26-0.26c-0.002 0-0.003 0-0.005 0h-1.189v-0.529h1.189c0.001 0 0.003 0 0.004 0 0.144 0 0.26-0.117 0.26-0.26s-0.116-0.26-0.26-0.26c-0.002 0-0.003 0-0.005 0h-1.189v-0.478h1.825c0.305 0 0.552 0.247 0.552 0.552v1.543c-0 0.305-0.247 0.552-0.552 0.552h-1.273c-0.306-0.002-0.554-0.251-0.554-0.557 0-0.015 0.001-0.029 0.002-0.043l-0 0.002zM24.334 20.287c-0.551 3.308-5.083 3.31-5.634 0-0.484-3.993 1.012-4.998 1.688-7.563v2.695c-1.205 0.783-1.187 2.65 0.054 3.4v1.001c-0.309 0.042-0.545 0.304-0.546 0.621v0.252c0 0.346 0.281 0.627 0.627 0.627h1.985c0.346-0 0.627-0.281 0.627-0.627v-0.252c-0.001-0.317-0.236-0.579-0.542-0.621l-0.003-0v-1.001c1.244-0.752 1.259-2.625 0.047-3.405v-2.719c0.67 2.582 2.185 3.595 1.696 7.592z"></path>
<path d="M8.017 10.302c0.348-0.006 0.348-0.523 0-0.529-0.348 0.006-0.348 0.523 0 0.529z"></path>
<path d="M9.092 9.638c0.348-0.006 0.348-0.523 0-0.529-0.348 0.006-0.348 0.523 0 0.529z"></path>
</symbol>
<symbol id="icon-knight" viewBox="0 0 26 32">
<path d="M1.83 8.316c0.031 0.033 0.071 0.058 0.116 0.070l0.002 0 7.286 2.038c-0.582 0.246-1.073 0.606-1.464 1.055l-0.004 0.005c-0.397 0.451-0.715 0.984-0.924 1.568l-0.011 0.034c-0.007 0.023-0.012 0.049-0.012 0.076 0 0.12 0.082 0.221 0.192 0.25l0.002 0c0.156 0.040 0.305 0.086 0.449 0.137l-3.53 3.134c-0.314 0.009-0.613 0.040-0.905 0.092l0.036-0.005c-0.12 0.024-0.209 0.128-0.209 0.253 0 0.035 0.007 0.069 0.020 0.099l-0.001-0.002c0.446 1.089 1.047 2.024 1.788 2.829l-0.006-0.007c-0.225 0.256-0.458 0.489-0.704 0.708l-0.008 0.007c-2.006 1.775-2.151 3.735-2.156 3.817-0 0.005-0 0.011-0 0.016 0 0.142 0.115 0.258 0.258 0.258 0 0 0 0 0 0h7.82c0.001 0 0.002 0 0.003 0s0.002 0 0.003 0h11.359c0 0 0 0 0 0 0.142 0 0.258-0.116 0.258-0.258 0-0.006-0-0.012-0.001-0.019l0 0.001c-0.113-1.319-0.303-2.515-0.57-3.681l0.034 0.177c0.339 0.242 0.728 0.451 1.142 0.607l0.035 0.012c0.027 0.010 0.058 0.017 0.091 0.017 0.125 0 0.23-0.089 0.253-0.208l0-0.002c0.023-0.121 0.553-2.973 0.153-7.202l0.62 0.228c0.107 0.040 0.23 0.064 0.359 0.064 0.573 0 1.038-0.465 1.039-1.038v-0c-0-0.407-0.26-0.754-0.624-0.883l-0.007-0.002-1.117-0.386c-0.027-0.321-0.197-0.598-0.445-0.769l-0.003-0.002c-0.527-0.371-1.15-0.649-1.821-0.793l-0.033-0.006c-0.066-0.014-0.142-0.022-0.22-0.022-0.048 0-0.096 0.003-0.142 0.009l0.006-0.001 0.221-1.437c0.002-0.012 0.003-0.025 0.003-0.039 0-0.111-0.070-0.206-0.169-0.242l-0.002-0.001-0.23-0.083c-0.094-0.035-0.203-0.055-0.317-0.055-0.385 0-0.717 0.23-0.864 0.561l-0.002 0.006-0.442 1.016-2.218-0.625c0.069-0.191 0.119-0.412 0.138-0.642l0.001-0.010c0.046-0.556 0.15-1.911 0.163-3.044 0.197 0.022 0.426 0.034 0.658 0.034 0.121 0 0.242-0.003 0.361-0.010l-0.017 0.001c0.137-0.007 0.245-0.12 0.245-0.258 0-0.015-0.001-0.030-0.004-0.045l0 0.002c-0.055-0.263-0.14-0.495-0.253-0.711l0.007 0.015c0.372-0.011 0.869-0.134 1.37-0.579 0.053-0.047 0.086-0.116 0.086-0.193 0-0.122-0.085-0.225-0.199-0.251l-0.002-0c-0.005-0.001-0.482-0.116-0.766-0.433-0.041-0.046-0.089-0.102-0.142-0.166-0.331-0.392-0.89-1.054-1.641-1.381 0.159-0.141 0.294-0.304 0.401-0.486l0.005-0.009c0.022-0.037 0.035-0.082 0.035-0.13 0-0.143-0.116-0.258-0.258-0.258-0.002 0-0.003 0-0.005 0h0c-0.191 0.003-0.764-0.018-1.111-0.161-0.006-0.002-0.011-0.004-0.017-0.006-0.024-0.008-2.406-0.765-3.555 1.587-0.449 0.074-1.663 0.435-2.008 2.174-0.011 0.058-0.247 1.367 0.777 2.198-0.085 0.601 0.002 1.494 0.792 1.693 0.068 0.017 0.146 0.026 0.226 0.026 0.144 0 0.281-0.031 0.404-0.086l-0.006 0.002v1.157l-7.959-2.075-0.45-1.001 6.417 1.807c0.021 0.006 0.045 0.010 0.070 0.010 0.143 0 0.258-0.116 0.258-0.258 0-0.118-0.079-0.217-0.186-0.248l-0.002-0-7.156-2.015c-0.021-0.006-0.045-0.010-0.070-0.010-0.007 0-0.014 0-0.021 0.001l0.001-0c-0.030 0.002-0.734 0.061-1.709 0.554-0.084 0.044-0.141 0.13-0.141 0.23 0 0.024 0.003 0.047 0.009 0.068l-0-0.002c0.18 0.595 0.479 1.108 0.869 1.534l-0.003-0.003zM22.823 13.47l0.050-0.756 0.973 0.336c0.166 0.059 0.283 0.214 0.283 0.397v0c0 0 0 0 0 0 0 0.289-0.234 0.523-0.523 0.523-0.065 0-0.127-0.012-0.184-0.033l0.004 0.001-0.648-0.239c0.023-0.067 0.039-0.146 0.045-0.226l0-0.003zM9.079 16.591c0.019 0.072 0.031 0.155 0.031 0.24 0 0.087-0.012 0.172-0.034 0.253l0.002-0.007c-0.194 0.759-0.514 1.423-0.941 2.005l0.011-0.016c-0.29-0.331-0.549-0.703-0.765-1.101l-0.016-0.032c-0.067-0.131-0.144-0.244-0.235-0.344l0.001 0.001 1.794-1.617c0.041 0.177 0.092 0.386 0.152 0.617zM19.688 18.722c-0.707-0.408-1.703-1.015-2.5-1.625 0.307-0.461 0.581-0.99 0.797-1.548l0.019-0.056c0.507 0.394 1.080 0.785 1.676 1.141l0.079 0.044c-0.041 0.671-0.069 1.373-0.072 2.045zM19.934 14.495c-0.045 0.462-0.094 1.012-0.137 1.602-0.61-0.374-1.435-0.92-1.959-1.429 0.109-1.113-0.448-1.661-0.823-1.9-0.095-0.062-0.175-0.139-0.237-0.229l-0.002-0.003 1.23 0.344 0.059 1.064c0.025 0.466 0.386 0.841 0.844 0.886l0.004 0 0.419 0.042c0.008 0.001 0.017 0.001 0.026 0.001v0c0.129-0 0.235-0.094 0.255-0.217l0-0.001 0.153-0.999c0.077 0.050 0.154 0.096 0.232 0.14zM14.959 11.875c-0.050 0.284-0.201 0.527-0.415 0.693l-0.002 0.002c-0.126 0.098-0.287 0.158-0.462 0.158-0.113 0-0.22-0.025-0.316-0.069l0.005 0.002c-0.409-0.183-0.748-0.46-1-0.804l-0.005-0.007c-0.085-0.114-0.158-0.245-0.213-0.385l-0.004-0.012c-0.018-0.149-0.056-0.284-0.111-0.41l0.004 0.009c-0.013-0.082-0.021-0.178-0.021-0.274v-1.178c0.040 0.036 0.082 0.070 0.127 0.102l0.004 0.003c0.52 0.365 1.12 0.667 1.762 0.876l0.048 0.014c0.005 0.716 0.377 1.11 0.599 1.281zM12.428 12.256c0.298 0.376 0.679 0.674 1.115 0.869l0.019 0.008c0.154 0.069 0.334 0.11 0.523 0.11h0c0.001 0 0.002 0 0.003 0 0.294 0 0.564-0.101 0.777-0.271l-0.003 0.002c0.3-0.235 0.514-0.569 0.593-0.951l0.002-0.011c0.174 0.011 0.333 0.067 0.467 0.158l-0.003-0.002c0.122 0.096 0.217 0.22 0.274 0.364l0.002 0.006c0.11 0.278 0.297 0.505 0.535 0.66l0.005 0.003c0.14 0.089 0.257 0.2 0.349 0.33l0.003 0.004c-0.353 1.044-1.011 1.908-1.867 2.51l-0.016 0.011c-0.142 0.097-0.318 0.154-0.506 0.154-0.141 0-0.274-0.032-0.392-0.089l0.005 0.002c-0.182-0.086-0.359-0.179-0.527-0.278-0.037-0.022-0.083-0.036-0.131-0.036-0.142 0-0.258 0.116-0.258 0.258 0 0.094 0.051 0.177 0.126 0.222l0.001 0.001c0.181 0.107 0.373 0.207 0.569 0.3 0.178 0.085 0.386 0.135 0.606 0.135 0.297 0 0.573-0.091 0.802-0.247l-0.005 0.003c0.789-0.547 1.414-1.277 1.823-2.13l0.014-0.033c0 0.018 0.001 0.039 0.001 0.060 0 0.235-0.030 0.462-0.088 0.679l0.004-0.018c-0.005 0.019-0.481 1.932-2.258 2.91-0.111 0.062-0.243 0.098-0.384 0.098-0.116 0-0.226-0.025-0.325-0.069l0.005 0.002c-1.37-0.605-2.502-1.548-3.273-2.727l-0.306-0.507c0.497-0.392 0.91-0.864 1.225-1.4l0.013-0.023c0.469 0.589 1.016 1.089 1.631 1.495l0.026 0.016c0.226 0.145 0.503 0.231 0.799 0.231 0 0 0 0 0 0v0c0.001 0 0.002 0 0.004 0 0.423 0 0.805-0.179 1.074-0.465l0.001-0.001c0.213-0.224 0.394-0.48 0.535-0.759l0.008-0.018c0.017-0.034 0.028-0.074 0.028-0.116 0-0.143-0.116-0.258-0.258-0.258-0.103 0-0.192 0.060-0.233 0.148l-0.001 0.002c-0.126 0.249-0.278 0.464-0.457 0.652l0.001-0.001c-0.177 0.186-0.427 0.302-0.703 0.302-0.194 0-0.374-0.057-0.525-0.155l0.004 0.002c-0.85-0.537-1.459-1.296-1.672-1.582 0.068-0.145 0.142-0.331 0.206-0.521l0.012-0.040zM11.211 10.692c0.199 0.025 0.375 0.108 0.514 0.232l-0.001-0.001c0.022 0.040 0.289 0.559-0.178 1.205-0.245 0.317-0.512 0.595-0.806 0.843l-0.008 0.007c-0.274 0.242-0.637 0.39-1.034 0.39-0.228 0-0.444-0.049-0.639-0.136l0.010 0.004c-0.553-0.247-1.051-0.732-0.667-1.676 0.606-0.568 1.508-1.025 2.81-0.869zM7.083 14.577c0.779 0.089 1.436 0.286 1.935 0.62l-2.296 2.069c-0.665-0.368-1.396-0.518-2.030-0.566zM3.484 17.233c0.203-0.022 0.439-0.034 0.678-0.034 0.135 0 0.269 0.004 0.402 0.012l-0.018-0.001c0.071 0.012 1.056 0.195 1.518 0.988 0.493 0.834 1.055 1.554 1.697 2.194l0 0c-0.311 0.203-0.576 0.444-0.799 0.721l-0.005 0.007c-0.576-0.314-2.376-1.453-3.474-3.887zM2.345 24.234c0.113-0.569 0.52-1.931 1.941-3.189 0.051-0.045 0.1-0.091 0.15-0.137v0.001s0.673 0.731 1.399 1.146c-0.284 0.504-0.513 1.087-0.659 1.703l-0.009 0.046c-0.061 0.249-0.282 0.432-0.546 0.432-0 0-0.001 0-0.001 0h0zM9.638 22.121l-0.024 0.735c0 0.001 0 0.003 0 0.004s-0 0.003-0 0.004v1.18l-0.002 0.191h-0.231c-0.734-0.001-1.329-0.596-1.33-1.33v-0c-0-0.445-0.162-0.851-0.429-1.165l0.002 0.003-0.258-0.304c0.36-0.433 0.829-0.764 1.364-0.953l0.022-0.007 0.367 0.359c0.32 0.315 0.519 0.753 0.519 1.237 0 0.006-0 0.013-0 0.019v-0.001zM16.192 24.234h-1.369v-1.113h1.369zM16.192 20.541v2.065h-6.045l0.006-0.472 0.092-2.848c0.055-1.701 0.925-2.155 0.925-2.155l-0.001-0.001c1.077 1.193 2.171 1.752 2.78 1.992 0.141 0.057 0.304 0.091 0.475 0.091 0.18 0 0.35-0.037 0.506-0.103l-0.008 0.003c0.585-0.26 1.084-0.615 1.497-1.051l0.002-0.002c-0.020 0.173-0.040 0.322-0.056 0.423-0.109 0.618-0.172 1.331-0.173 2.058v0.001zM20.040 24.234c-0.252-0.001-0.458-0.199-0.471-0.448l-0-0.001c-0.074-1.28-0.249-2.475-0.52-3.634l0.028 0.142 1.35 0.691c0.216 0.904 0.401 2.011 0.514 3.14l0.009 0.11zM20.644 20.009c-0.274-0.312-0.441-0.724-0.441-1.175 0-0.005 0-0.010 0-0.014v0.001c0-1.338 0.108-2.816 0.211-3.923 0.105 0.056 0.246 0.129 0.409 0.212 0.087 0.047 0.732 0.456 0.718 2.307 0 0 0.017 2.389-0.189 3.203-0.268-0.178-0.501-0.38-0.705-0.607l-0.003-0.003zM20.036 11.203c0.093-0.065 0.208-0.103 0.332-0.103 0 0 0.001 0 0.001 0h-0c0.044 0 0.086 0.005 0.127 0.013l-0.004-0.001c0.632 0.135 1.19 0.384 1.678 0.726l-0.014-0.010c0.14 0.094 0.23 0.251 0.23 0.43 0 0.010-0 0.020-0.001 0.030l0-0.001-0.076 1.148c-0.009 0.127-0.072 0.237-0.165 0.31l-0.001 0.001c-0.085 0.068-0.195 0.109-0.314 0.109-0.028 0-0.055-0.002-0.082-0.007l0.003 0c-0.687-0.101-1.301-0.35-1.83-0.715l0.014 0.009c-0.106-0.074-0.176-0.191-0.185-0.326l-0-0.001c-0.007-0.106-0.011-0.229-0.011-0.353 0-0.321 0.026-0.636 0.075-0.943l-0.005 0.034c0.026-0.147 0.109-0.271 0.225-0.35l0.002-0.001zM19.351 9.509c0.167-0.35 0.566-0.221 0.566-0.221s-0.546 1.696-0.648 2.439c-0.001 0.006-0.002 0.014-0.003 0.020l-0.816-0.17zM17.486 10.588l-0.417 0.53-1.699-0.37c0.143-0.044 0.264-0.123 0.358-0.228l0.001-0.001c0.057-0.063 0.113-0.132 0.164-0.203l0.005-0.007q0.050-0.069 0.095-0.142zM11.422 8.129c-0.005-0.002-0.011-0.003-0.017-0.005-0.563-0.141-0.414-1.092-0.389-1.233 0.034-0.079 0.081-0.147 0.138-0.205v0c0.083-0.082 0.198-0.133 0.324-0.133 0.016 0 0.033 0.001 0.049 0.003l-0.002-0c0.134 0.011 0.25 0.082 0.322 0.185l0.001 0.001c0.056 0.084 0.089 0.188 0.089 0.299 0 0.002 0 0.005-0 0.007v-0c0.003 0.14 0.117 0.253 0.258 0.253 0.022 0 0.044-0.003 0.065-0.008l-0.002 0c0.029-0.007 0.606-0.16 0.89-0.848l0.069 0.063c0.046 0.041 0.106 0.067 0.173 0.067 0.035 0 0.067-0.007 0.098-0.019l-0.002 0.001c0.038-0.015 0.784-0.328 0.891-1.406 0.333 0.289 0.853 0.603 1.625 0.768-0.003 0.322-0.013 0.665-0.028 1.005-0.168 0.047-0.315 0.095-0.324 0.097-0.106 0.034-0.181 0.131-0.181 0.246 0 0.143 0.116 0.258 0.258 0.258 0.030 0 0.059-0.005 0.085-0.014l-0.002 0.001c0.001 0 0.057-0.018 0.136-0.042-0.036 0.642-0.081 1.217-0.107 1.532-0.031 0.455-0.214 0.862-0.498 1.176l0.002-0.002c-0.051 0.057-0.124 0.092-0.205 0.092-0.022 0-0.043-0.003-0.064-0.007l0.002 0c-0.848-0.197-1.595-0.535-2.253-0.992l0.021 0.014c-0.21-0.148-0.357-0.374-0.399-0.635l-0.001-0.006c-0.014-0.090-0.025-0.198-0.029-0.308l-0-0.006v-0.261c-0.038-0.263-0.298-0.297-0.449-0.174-0.272 0.3-0.524 0.242-0.547 0.236zM2.804 6.454l0.442 1.014-1.087 0.442c-0.262-0.3-0.474-0.651-0.62-1.034l-0.008-0.024c0.369-0.182 0.797-0.321 1.247-0.395l0.027-0.004z"></path>
<path d="M12.611 14.883c-0.048-0.057-0.119-0.094-0.199-0.094-0.143 0-0.258 0.116-0.258 0.258 0 0.063 0.022 0.12 0.059 0.165l-0-0q0.052 0.063 0.106 0.123c0.047 0.052 0.115 0.084 0.191 0.084 0.143 0 0.258-0.116 0.258-0.258 0-0.066-0.025-0.126-0.066-0.172l0 0q-0.047-0.052-0.091-0.106z"></path>
<path d="M14.157 7.418c0.002 0 0.221 0.046 0.405 0.096 0.019 0.005 0.041 0.008 0.064 0.008 0.143 0 0.258-0.116 0.258-0.258 0-0.117-0.078-0.216-0.185-0.248l-0.002-0c-0.199-0.054-0.424-0.101-0.434-0.103-0.014-0.003-0.031-0.004-0.047-0.004-0.143 0-0.258 0.116-0.258 0.258 0 0.122 0.085 0.224 0.198 0.251l0.002 0z"></path>
</symbol>
<symbol id="icon-hunter" viewBox="0 0 26 32">
<path d="M1.797 13.064c0.056 0.013 0.121 0.021 0.187 0.021 0.020 0 0.039-0.001 0.059-0.002l-0.003 0c0.050 0.356 0.234 0.81 0.701 1.055 0.091 0.556 0.457 2.651 1.018 4.075 0.026 0.065 0.075 0.115 0.137 0.142l0.002 0.001c0.031 0.007 0.066 0.011 0.102 0.011 0.034 0 0.068-0.003 0.101-0.010l-0.003 0.001c1.159-0.501 2.14-1.028 3.071-1.625l-0.084 0.051 0.001-0.001c0.215-0.138 0.422-0.278 0.616-0.417v0l0.008-0.006c0.031-0.022 0.062-0.044 0.093-0.066 0.014-0.010 0.026-0.021 0.037-0.034l0-0 0.442-0.339c0.101 0.922 0.766 1.665 1.639 1.881l0.015 0.003c0.212 0.541 0.361 1.169 0.417 1.823l0.002 0.025c0.002 0.022 0.003 0.048 0.003 0.074 0 0.185-0.054 0.357-0.147 0.501l0.002-0.004c-0.244 0.388-0.738 1.374-0.9 2.373-0.338 0.221-0.613 0.511-0.811 0.851l-0.006 0.012c-0.033 0.038-0.055 0.087-0.061 0.141l-0 0.001c-0.001 0.008-0.001 0.016-0.001 0.025 0 0.117 0.077 0.216 0.184 0.248l0.002 0c1.151 0.326 2.501 0.567 3.889 0.675l0.073 0.005c0.452 0.035 0.945 0.058 1.463 0.058 1.852 0 4.030-0.293 5.797-1.363 0.086-0.054 0.185-0.098 0.291-0.125l0.007-0.002c0 0 0 0 0 0 0.237 0 0.455-0.076 0.633-0.206l-0.003 0.002c0.331-0.247 0.621-0.518 0.877-0.818l0.006-0.007c0.167-0.191 0.269-0.442 0.269-0.717 0-0.097-0.013-0.19-0.036-0.279l0.002 0.008c1.219-1.466 3.058-4.706 2.276-10.381-0.018-0.127-0.126-0.223-0.256-0.223-0.003 0-0.006 0-0.009 0h0c-0.030 0.001-0.721 0.038-1.058 0.986l-3.142 2.579c-0.062 0.049-0.102 0.125-0.102 0.21 0 0.060 0.020 0.115 0.053 0.159l-0-0.001c0.048 0.060 0.121 0.098 0.202 0.098 0.062 0 0.12-0.022 0.164-0.059l-0 0 2.72-2.232c-0.019 1.213-0.226 5.576-2.145 7.626-0.081-0.022-0.173-0.036-0.269-0.036h-0.001c-0.607-0.694-1.635-1.98-2.25-3.363-0.001-0.002-0.002-0.003-0.003-0.005q-0.025-0.056-0.049-0.112c-0.637-1.498-0.366-3.040-0.206-3.674 0.309-0.148 0.519-0.457 0.519-0.816 0-0.101-0.017-0.199-0.048-0.29l0.002 0.006c-0.222-0.653-0.594-1.205-1.076-1.637l-0.004-0.003c-0.199-0.181-0.465-0.293-0.757-0.293-0.273 0-0.523 0.097-0.718 0.259l0.002-0.002c-0.121 0.099-0.24 0.205-0.356 0.318l-0.407-0.407c-0.169-0.169-0.403-0.274-0.662-0.274-0.245 0-0.467 0.094-0.634 0.248l0.001-0.001-0.041 0.038-0.197-1.848c-0.001-0.008-0.001-0.016-0.001-0.025 0-0.082 0.043-0.153 0.107-0.194l0.001-0.001c0.456-0.297 0.84-0.661 1.151-1.082l0.008-0.012c0.075 0.302 0.181 0.567 0.319 0.812l-0.008-0.016c0.281 0.452 0.669 0.815 1.129 1.058l0.016 0.008c0.263 0.139 0.576 0.222 0.907 0.223h0c0.001 0 0.003 0 0.004 0 0.246 0 0.481-0.049 0.696-0.138l-0.012 0.004c0.582-0.238 0.759-0.66 0.777-0.708 0.011-0.028 0.017-0.060 0.017-0.093 0-0.105-0.063-0.195-0.153-0.236l-0.002-0.001c-0.587-0.257-0.573-1.077-0.573-1.084 0-0.003 0-0.005 0-0.008v-2.738c0-1.002-0.266-1.752-0.791-2.23-0.371-0.329-0.861-0.53-1.399-0.53-0.033 0-0.066 0.001-0.099 0.002l0.005-0c-0.899 0.004-1.329 0.525-1.513 0.857-0.175 0.029-0.332 0.076-0.479 0.14l0.013-0.005c-0.183-0.13-0.391-0.25-0.611-0.349l-0.024-0.010c-0.138-0.061-0.283-0.116-0.431-0.166-0.314-0.111-0.676-0.175-1.052-0.175-0.324 0-0.637 0.048-0.933 0.136l0.023-0.006c-0.434 0.148-0.795 0.419-1.049 0.772l-0.004 0.006c-0.399 0.117-1.629 0.633-1.586 2.524 0.016 0.725 0.277 1.324 0.773 1.784 0.003 0.191 0.015 0.369 0.032 0.524l-0.398-0.369c-0.107-0.1-0.252-0.161-0.41-0.161-0.161 0-0.307 0.063-0.415 0.165l0-0-0.105 0.1-0.648-0.619 0.035-0.745c0.001-0.014 0.001-0.031 0.001-0.047 0-0.247-0.088-0.474-0.235-0.65l0.001 0.002-0.758-0.912c-0.044-0.054-0.107-0.091-0.18-0.099l-0.001-0c-0.007-0.001-0.014-0.001-0.022-0.001-0.126 0-0.23 0.089-0.254 0.208l-0 0.002-0.192 0.998-0.59 0.102-0.375-0.453c-0.044-0.054-0.107-0.091-0.18-0.098l-0.001-0c-0.007-0.001-0.014-0.001-0.022-0.001-0.125 0-0.23 0.089-0.254 0.208l-0 0.002-0.223 1.162-1.175 0.203c-0.073 0.011-0.135 0.051-0.176 0.108l-0.001 0.001c-0.028 0.041-0.045 0.092-0.045 0.146 0 0.079 0.036 0.15 0.092 0.198l0 0 1.031 0.866c0.193 0.163 0.445 0.262 0.721 0.262h0.021l0.921-0.017 0.804 0.829c-0.046 0.083-0.072 0.182-0.072 0.287 0 0.028 0.002 0.057 0.006 0.084l-0-0.003c0.022 0.144 0.090 0.27 0.189 0.363l0 0 2.322 2.261c-0.154 0.060-0.287 0.132-0.409 0.217l0.006-0.004c-0.193 0.137-0.326 0.347-0.358 0.59l-0 0.004c-0.004 0.033-0.007 0.071-0.007 0.109 0 0.216 0.079 0.415 0.21 0.567l-0.001-0.001q0.050 0.058 0.109 0.124c-0.496 0.398-1.261 1.006-1.864 1.462h-0q-0.202 0.153-0.361 0.268c-0.216-0.417-0.451-0.944-0.659-1.484l-0.039-0.115v-1.562c-0.001-0.24-0.096-0.457-0.25-0.617l0 0c0.039-0.233 0.061-0.501 0.061-0.774 0-0.33-0.032-0.652-0.094-0.964l0.005 0.031c-0.039-0.23-0.177-0.421-0.367-0.532l-0.004-0.002c-0.095-0.054-0.21-0.086-0.331-0.086-0.212 0-0.401 0.097-0.526 0.249l-0.001 0.001c-0.097 0.118-0.156 0.271-0.156 0.437 0 0.031 0.002 0.062 0.006 0.092l-0-0.004c0.018 0.142 0.029 0.291 0.034 0.438-0.198-0.171-0.43-0.309-0.685-0.402l-0.015-0.005c-0.068-0.025-0.146-0.039-0.227-0.039-0.228 0-0.43 0.111-0.554 0.283l-0.001 0.002c-0.077 0.107-0.123 0.241-0.123 0.385 0 0.183 0.074 0.348 0.193 0.468l-0-0c0.042 0.042 0.091 0.077 0.144 0.105l0.003 0.002c0.165 0.092 0.306 0.206 0.425 0.341l0.001 0.002c-0.205 0.031-0.389 0.096-0.556 0.19l0.008-0.004c-0.275 0.161-0.459 0.451-0.468 0.785l-0 0.001c-0.001 0.027-0.002 0.058-0.002 0.089 0 0.162 0.015 0.321 0.043 0.475l-0.002-0.016c0.048 0.268 0.245 0.481 0.501 0.551l0.005 0.001zM4.713 7.070l-0.792 0.015c-0.003 0-0.007 0-0.011 0-0.149 0-0.285-0.054-0.39-0.142l0.001 0.001-0.606-0.508 0.812-0.141c0.106-0.019 0.189-0.1 0.209-0.204l0-0.002 0.098-0.512 0.698 0.586c0.010 0.041 0.016 0.088 0.016 0.137 0 0.010-0 0.020-0.001 0.030l0-0.001zM15.864 20.009c-0.658-0.905-0.073-2.825 0.035-2.96 0.091 0.175 0.186 0.39 0.268 0.611l0.013 0.041 0.001 0.002c0.092 0.239 0.186 0.542 0.262 0.852l0.011 0.055c0.003 0.011 0.005 0.020 0.008 0.028l-0.001-0.002c0.454 1.352 1.461 2.376 2.079 2.907-0 0.010-0.001 0.022-0.001 0.034 0 0.102 0.014 0.201 0.040 0.294l-0.002-0.008c-0.447 0.248-1.574 0.597-1.574 0.597s-0.332-1.343-1.139-2.452zM16.378 15.752c0-0.005 0.001-0.009 0.001-0.014 0.002-0.051 0.003-0.111 0.003-0.172 0-0.409-0.047-0.808-0.135-1.19l0.007 0.036c0.405-0.248 0.68-0.404 0.856-0.499-0.007 0.112-0.012 0.243-0.012 0.375 0 0.78 0.149 1.526 0.419 2.21l-0.014-0.041c-0.242 0.133-0.447 0.266-0.642 0.411l0.015-0.011c-0.191-0.467-0.383-0.871-0.497-1.104zM8.784 15.725c-0.002-0.050-0.003-0.11-0.003-0.169 0-0.416 0.055-0.818 0.158-1.201l-0.007 0.032c0.792 0.751 1.7 1.391 2.691 1.89l0.065 0.029c0.216 0.108 0.471 0.171 0.741 0.171 0.294 0 0.571-0.075 0.812-0.208l-0.009 0.004c0.434-0.235 1.055-0.595 1.867-1.127 0.255-0.167 0.484-0.314 0.689-0.444 0.049 0.261 0.078 0.562 0.078 0.87 0 0.054-0.001 0.107-0.003 0.16l0-0.008c-0.021 0.82-0.637 1.51-1.426 1.604-0.041 0.003-0.242 0.013-0.315 0.008-0.419-0.030-0.809-0.099-1.183-0.203l0.042 0.010c-0.197-0.059-0.423-0.092-0.657-0.092s-0.46 0.034-0.674 0.096l0.017-0.004c-0.333 0.095-0.722 0.163-1.122 0.192l-0.019 0.001c-0.073 0.005-0.274-0.004-0.309-0.008-0.802-0.111-1.415-0.783-1.432-1.602l-0-0.002zM10.649 20.498c0.14-0.219 0.223-0.486 0.223-0.773 0-0.042-0.002-0.084-0.005-0.125l0 0.005c-0.036-0.397-0.095-0.758-0.179-1.108l0.010 0.052 2.821 0.378c0.244 0.034 0.43 0.241 0.43 0.492 0 0.026-0.002 0.052-0.006 0.077l0-0.003-0.058 0.383c-0.011 0.070-0.017 0.151-0.017 0.233 0 0.337 0.101 0.65 0.275 0.911l-0.004-0.006c0.284 0.417 0.488 0.911 0.578 1.444l0.003 0.022c-2.153 0.337-4.267-0.165-4.267-0.165v0l2.201-1.806c0.058-0.048 0.094-0.119 0.094-0.2 0-0.143-0.116-0.258-0.258-0.258-0.062 0-0.12 0.022-0.164 0.059l0-0-2.359 1.936c0.179-0.591 0.41-1.104 0.697-1.58l-0.017 0.031zM9.183 23.489c0.264-0.213 0.603-0.342 0.973-0.342 0.121 0 0.238 0.014 0.351 0.040l-0.010-0.002c3.527 0.78 6.098 0.123 7.536-0.485 0.14 0.249 0.284 0.463 0.444 0.664l-0.008-0.010c-3.443 1.375-7.913 0.469-9.286 0.135zM23.251 12.089c0-0.002-0-0.004-0-0.007 0-0.129 0.020-0.254 0.056-0.371l-0.002 0.009c0.107-0.336 0.261-0.512 0.387-0.603 0.516 4.224-0.473 6.992-1.473 8.633l-0.627-0.354c1.546-2.477 1.654-6.444 1.659-7.306zM20.678 20.481c0.203 0.165 0.388 0.327 0.55 0.482 0.109 0.105 0.177 0.252 0.177 0.415 0 0.145-0.054 0.278-0.143 0.379l0.001-0.001c-0.237 0.278-0.498 0.523-0.783 0.736l-0.012 0.009c-0.092 0.065-0.207 0.104-0.331 0.104-0.132 0-0.253-0.044-0.35-0.118l0.001 0.001c-0.212-0.162-0.4-0.331-0.573-0.515l-0.002-0.002c-0.096-0.103-0.156-0.242-0.156-0.395 0-0.123 0.038-0.236 0.103-0.33l-0.001 0.002c0.181-0.264 0.482-0.623 0.89-0.837 0.076-0.040 0.167-0.064 0.263-0.064 0.14 0 0.269 0.050 0.369 0.133l-0.001-0.001zM19.448 19.614c0.006 0.002 0.011 0.002 0.017 0.003 0.105 0.13 0.206 0.252 0.3 0.363-0.291 0.166-0.539 0.371-0.747 0.612l-0.003 0.004c-0.309-0.26-0.586-0.534-0.84-0.829l-0.008-0.009c0.24-0.126 0.525-0.2 0.827-0.2 0.161 0 0.318 0.021 0.466 0.061l-0.013-0.003zM18.299 17.988c0.233 0.376 0.479 0.73 0.718 1.052-0 0-0 0-0 0-0.429 0-0.832 0.112-1.181 0.309l0.012-0.006c-0.135-0.19-0.257-0.406-0.354-0.636l-0.009-0.023c0.198-0.306 0.475-0.545 0.803-0.692l0.012-0.005zM17.714 16.93c0.1 0.207 0.208 0.411 0.321 0.611-0.285 0.133-0.528 0.314-0.727 0.533l-0.002 0.002c-0.067-0.237-0.148-0.48-0.235-0.718 0.188-0.149 0.398-0.291 0.618-0.416l0.024-0.013zM13.229 7.341c-0.088 0.026-0.162 0.073-0.221 0.135l-0 0c-0.082 0.087-0.132 0.205-0.132 0.334 0 0 0 0 0 0v0 0.203c0 0.001 0 0.003 0 0.004 0 0.181-0.072 0.346-0.189 0.466l0-0c-0.415 0.425-0.914 0.767-1.469 1l-0.029 0.011c-0.066 0.027-0.142 0.043-0.223 0.043-0.121 0-0.233-0.036-0.327-0.098l0.002 0.001c-0.674-0.439-1.163-1.116-1.349-1.909l-0.004-0.021c-0.004-0.018-0.385-1.656 0.265-2.661 0.266 0.657 0.981 1.775 2.803 2.003 0.009 0.001 0.020 0.002 0.031 0.002 0.129 0 0.236-0.094 0.256-0.218l0-0.002c0.025-0.125 0.077-0.235 0.148-0.329l-0.001 0.002c0.073-0.093 0.186-0.152 0.312-0.152 0.008 0 0.016 0 0.024 0.001l-0.001-0c0.119 0.005 0.222 0.069 0.281 0.164l0.001 0.001c0.079 0.148 0.126 0.323 0.126 0.509 0 0.021-0.001 0.043-0.002 0.064l0-0.003c0.001 0.041-0.001 0.364-0.302 0.449zM13.157 10.26l-1.35 1.241-0.165-0.122-0.088-0.827c0.796-0.279 1.27-0.701 1.526-1.005zM15.030 2.813c0.338 0.52 0.341 0.939-0.004 1.319-0.178-0.696-0.531-1.293-1.009-1.762l-0.001-0.001c0.319-0.070 0.711-0.022 1.014 0.443zM5.174 5.859c-0.045-0.105-0.102-0.196-0.169-0.277l0.001 0.002-0.108-0.13 0.474-0.082c0.106-0.019 0.189-0.1 0.209-0.204l0-0.002 0.122-0.637 0.413 0.498c0.072 0.086 0.115 0.197 0.115 0.319 0 0.008-0 0.016-0.001 0.025l0-0.001-0.029 0.621-0.666 0.012c-0.003 0-0.007 0-0.011 0-0.122 0-0.234-0.044-0.32-0.118l0.001 0.001zM5.223 7.224l0.034-0.741c0.081 0.023 0.174 0.037 0.27 0.037h0.019l0.801-0.015 0.637 0.609-0.314 0.297-0.563-0.552c-0.046-0.046-0.11-0.074-0.181-0.074-0.143 0-0.258 0.116-0.258 0.258 0 0.072 0.030 0.137 0.077 0.184l0 0 0.55 0.539-0.285 0.27zM6.1 8.698c0-0.025 0.011-0.047 0.027-0.063l0-0 1.692-1.602c0.016-0.015 0.037-0.024 0.060-0.024s0.044 0.009 0.060 0.023l-0-0 0.914 0.846c0.138 0.449 0.346 0.839 0.614 1.179l-0.006-0.008-1.975 1.035-1.36-1.324c-0.016-0.016-0.027-0.038-0.027-0.063 0-0 0-0.001 0-0.001v0zM7.852 12.277c0.012-0.098 0.064-0.182 0.14-0.235l0.001-0.001c0.111-0.078 0.24-0.142 0.378-0.185l0.010-0.003c0.527 0.649 1.129 1.207 1.8 1.672l0.029 0.019c0.040 0.027 0.089 0.043 0.142 0.043 0.143 0 0.258-0.116 0.258-0.258 0-0.086-0.043-0.163-0.108-0.21l-0.001-0.001c-0.657-0.456-1.223-0.981-1.707-1.575l-0.012-0.015c0.159-0.309 0.372-0.568 0.629-0.776l0.005-0.004c0.068-0.056 0.155-0.090 0.251-0.090 0.088 0 0.169 0.029 0.234 0.077l-0.001-0.001 1.521 1.121-0.089 0.082c-0.071 0.065-0.166 0.106-0.27 0.106-0.071 0-0.138-0.019-0.196-0.052l0.002 0.001-0.186-0.104c-0.036-0.021-0.079-0.033-0.126-0.033-0.142 0-0.258 0.116-0.258 0.258 0 0.096 0.053 0.18 0.131 0.225l0.001 0.001 0.186 0.104c0.128 0.073 0.282 0.116 0.446 0.116 0.239 0 0.457-0.092 0.62-0.242l-0.001 0.001 2.34-2.151c0.075-0.069 0.175-0.111 0.284-0.111 0.116 0 0.221 0.047 0.297 0.123v0l0.42 0.42-2.52 2.874c-0.038 0.045-0.061 0.103-0.061 0.167 0 0.143 0.116 0.258 0.258 0.258 0.076 0 0.144-0.033 0.191-0.085l0-0 2.675-3.050c0.154-0.162 0.314-0.312 0.484-0.452l0.009-0.007c0.105-0.087 0.241-0.139 0.389-0.139 0.159 0 0.304 0.061 0.413 0.16l-0-0c0.42 0.376 0.742 0.854 0.928 1.395l0.007 0.023c0.012 0.036 0.020 0.078 0.020 0.122 0 0.156-0.092 0.291-0.226 0.352l-0.002 0.001c-0.449 0.205-1.195 0.613-2.204 1.398-0.819 0.637-1.739 1.243-2.705 1.776l-0.109 0.055c-0.109 0.060-0.239 0.096-0.377 0.096-0.135 0-0.262-0.034-0.373-0.093l0.004 0.002c-2.221-1.17-3.389-2.318-3.888-2.898-0.052-0.061-0.084-0.141-0.084-0.229 0-0.016 0.001-0.032 0.003-0.047l-0 0.002zM7.506 13.787v0c0.193 0.211 0.327 0.478 0.376 0.774l0.001 0.009c0.001 0.008 0.041 0.615-0.841 1.406-0.182-0.483-0.427-0.899-0.729-1.267l0.006 0.008c0.387-0.297 0.815-0.633 1.187-0.929zM5.601 15.252c0.089-0.064 0.191-0.138 0.307-0.224 0.304 0.364 0.545 0.793 0.699 1.262l0.008 0.027c-0.423 0.301-0.906 0.576-1.414 0.803l-0.054 0.021c0.397-0.772 0.45-1.601 0.455-1.89zM4.944 14.931c0.065 0.131 0.114 0.226 0.141 0.276-0.002 0.214-0.041 1.155-0.52 1.912-0.209-0.391-0.416-0.859-0.589-1.344l-0.024-0.076c0.402-0.171 0.737-0.434 0.989-0.763l0.004-0.006zM4.387 13.691c0.101 0.252 0.204 0.489 0.299 0.698-0.004 0.006-0.009 0.013-0.013 0.020l-0.001 0.001c-0.206 0.352-0.51 0.627-0.875 0.793l-0.012 0.005c-0.1-0.316-0.197-0.664-0.287-1.043 0.347-0.081 0.647-0.247 0.889-0.475l-0.001 0.001zM3.622 9.213c0.028-0.035 0.070-0.058 0.118-0.061l0.001-0c0.004-0 0.008-0 0.013-0 0.090 0 0.165 0.064 0.182 0.149l0 0.001c0.056 0.27 0.089 0.58 0.089 0.898 0 0.177-0.010 0.352-0.030 0.524l0.002-0.021c-0.007-0.001-0.014-0.003-0.021-0.004-0.085-0.013-0.183-0.021-0.283-0.021-0.031 0-0.062 0.001-0.092 0.002l0.004-0c0.014-0.168 0.022-0.364 0.022-0.562 0-0.273-0.015-0.542-0.045-0.807l0.003 0.033c-0.001-0.007-0.002-0.015-0.002-0.023 0-0.041 0.015-0.079 0.039-0.109l-0 0zM3.899 11.21c0.179 0.030 0.314 0.184 0.314 0.369 0 0 0 0.001 0 0.001v-0 1.529c-0.266 0.363-0.691 0.596-1.171 0.596-0.004 0-0.008-0-0.012-0h0.001c-0.355-0.157-0.454-0.494-0.48-0.705 0.321-0.117 0.546-0.42 0.546-0.775 0-0.002 0-0.004-0-0.006v0-0.002c0.050 0.007 0.109 0.012 0.168 0.012h0q0.053 0 0.109-0.004c0.136-0.008 0.243-0.12 0.243-0.258 0-0.143-0.116-0.258-0.258-0.258-0.008 0-0.015 0-0.023 0.001l0.001-0c-0.175 0.013-0.3-0.019-0.37-0.093-0.051-0.062-0.084-0.141-0.088-0.227l-0-0.001c0.362-0.167 0.705-0.228 1.020-0.181zM2.088 10.195c-0.034-0.019-0.059-0.051-0.068-0.089l-0-0.001c-0.002-0.010-0.004-0.021-0.004-0.033 0-0.031 0.010-0.060 0.027-0.084l-0 0c0.030-0.042 0.079-0.069 0.135-0.069 0.020 0 0.038 0.003 0.056 0.010l-0.001-0c0.365 0.129 0.662 0.374 0.854 0.689l0.004 0.007c-0.003 0.050-0.007 0.097-0.010 0.141-0.108 0.031-0.196 0.062-0.281 0.096l0.018-0.007c-0.191-0.273-0.435-0.495-0.72-0.655l-0.011-0.006zM1.768 11.977c0.004-0.15 0.085-0.28 0.206-0.351l0.002-0.001c0.115-0.064 0.249-0.109 0.391-0.127l0.006-0.001c0.024 0.179 0.099 0.338 0.21 0.464l-0.001-0.001c0 0.005-0.001 0.009-0.001 0.014l0.001 0.249c0 0.001 0 0.001 0 0.002 0 0.152-0.109 0.277-0.253 0.303l-0.002 0-0.085 0.015c-0.073 0.014-0.158 0.022-0.245 0.024l-0.001 0c-0.002 0-0.004 0-0.007 0-0.094 0-0.172-0.067-0.189-0.156l-0-0.001c-0.020-0.109-0.031-0.234-0.031-0.361 0-0.025 0-0.051 0.001-0.076l-0 0.004z"></path>
<path d="M18.674 14.906l-0.102 0.084c-0.058 0.048-0.094 0.119-0.094 0.2 0 0.143 0.116 0.258 0.258 0.258 0.062 0 0.12-0.022 0.164-0.059l-0 0 0.102-0.084c0.058-0.048 0.094-0.119 0.094-0.2 0-0.143-0.116-0.258-0.258-0.258-0.062 0-0.12 0.022-0.164 0.059l0-0z"></path>
<path d="M9.898 6.74c-0.053-0.006-0.101-0.019-0.147-0.036l0.004 0.001c-0.027-0.011-0.059-0.017-0.092-0.017-0.143 0-0.258 0.116-0.258 0.258 0 0.107 0.065 0.199 0.158 0.238l0.002 0.001c0.085 0.034 0.183 0.058 0.285 0.069l0.005 0c0.008 0.001 0.015 0.001 0.022 0.001 0 0 0 0 0.001 0 0.142 0 0.258-0.115 0.258-0.258 0-0.135-0.104-0.246-0.236-0.257l-0.001-0z"></path>
<path d="M10.896 6.706c-0.041 0.016-0.090 0.029-0.14 0.035l-0.003 0c-0.133 0.011-0.237 0.122-0.237 0.257 0 0.142 0.116 0.258 0.258 0.258 0 0 0 0 0.001 0h-0q0.011 0 0.022-0.001c0.107-0.011 0.206-0.036 0.298-0.072l-0.008 0.003c0.095-0.040 0.16-0.132 0.16-0.239 0-0.143-0.116-0.258-0.258-0.258-0.033 0-0.065 0.006-0.095 0.018l0.002-0.001z"></path>
<path d="M11.259 14.216l0.054 0.020q0.030 0.011 0.060 0.021c0.024 0.008 0.051 0.013 0.080 0.013 0.142 0 0.258-0.116 0.258-0.258 0-0.114-0.074-0.211-0.177-0.245l-0.002-0.001c-0.013-0.004-0.026-0.009-0.039-0.013l-0.048-0.019c-0.027-0.010-0.058-0.017-0.091-0.017-0.143 0-0.258 0.116-0.258 0.258 0 0.108 0.067 0.201 0.161 0.239l0.002 0.001z"></path>
</symbol>
<symbol id="icon-alchemist" viewBox="0 0 26 32">
<path d="M22.584 8.575c-0.111-0.040-0.19-0.145-0.19-0.268 0-0 0-0.001 0-0.001v0-1.714c0.364-0.088 0.634-0.397 0.664-0.774l0-0.003c0.001-0.018 0.002-0.038 0.002-0.059 0-0.227-0.089-0.433-0.233-0.585l0 0c-0.157-0.167-0.38-0.271-0.627-0.272h-1.311c-0.003-0-0.006-0-0.009-0-0.457 0-0.832 0.352-0.869 0.8l-0 0.003c-0.001 0.018-0.002 0.038-0.002 0.059 0 0.227 0.089 0.433 0.233 0.586l-0-0c0.114 0.121 0.261 0.209 0.428 0.248l0.006 0.001v1.711c-0 0.124-0.080 0.23-0.191 0.27l-0.002 0.001c-1.268 0.45-2.159 1.638-2.159 3.035 0 1.166 0.621 2.188 1.551 2.751l0.014 0.008-0.017 0.043c-0.048 0.113-0.076 0.244-0.076 0.382 0 0.218 0.069 0.419 0.187 0.584l-0.002-0.003c0.12 0.169 0.245 0.317 0.381 0.454l-0-0c-0.901 1.361-1.73 2.068-2.134 2.364-0.668-1.957-1.503-4.057-1.957-5.169-0.001-0.002-0.002-0.004-0.003-0.006 0.094-1.275 0.251-2.441 0.5-3.355 0.006-0.020 0.009-0.044 0.009-0.068 0-0.142-0.116-0.258-0.258-0.258-0.022 0-0.043 0.003-0.063 0.008l0.002-0c-0.023 0.006-2.208 0.53-3.58 0.408v-0.515c0.071 0.022 0.144 0.043 0.221 0.064 0.080 0.023 0.172 0.036 0.267 0.036v0c0.001 0 0.001 0 0.002 0 0.196 0 0.379-0.057 0.533-0.155l-0.004 0.002 0.013-0.009c0.356-0.235 0.588-0.633 0.588-1.085 0-0.004-0-0.007-0-0.011v0.001-1.136c0.386-0.061 0.676-0.512 0.676-1.076s-0.29-1.015-0.676-1.076v-0.954c0.017-0.208 0.166-2.437-1.436-2.882-0.021-0.006-0.044-0.009-0.069-0.009-0.114 0-0.21 0.074-0.245 0.176l-0.001 0.002-0.070 0.215c-0.538-0.333-1.746-0.827-3.467-0.062-0.014 0.006-1.367 0.605-2.153 0.49-0.011-0.002-0.024-0.003-0.037-0.003-0.143 0-0.258 0.116-0.258 0.258 0 0.036 0.007 0.069 0.020 0.1l-0.001-0.002c0.016 0.038 0.344 0.815 1.091 1.263-0.253 0.222-0.473 0.472-0.657 0.749l-0.009 0.014c-0.026 0.039-0.041 0.088-0.041 0.139 0 0.11 0.069 0.204 0.166 0.241l0.002 0.001 0.853 0.319c-0.21 0.421-0.39 0.912-0.517 1.424l-0.010 0.050c-0.005 0.019-0.008 0.041-0.008 0.064 0 0.097 0.053 0.181 0.132 0.225l0.001 0.001c0.29 0.151 0.625 0.271 0.979 0.342l0.024 0.004c0.17 0.031 0.365 0.049 0.564 0.049 0.094 0 0.187-0.004 0.28-0.012l-0.012 0.001c0.032 0.074 0.065 0.137 0.103 0.197l-0.004-0.006c0.11 0.208 0.294 0.364 0.516 0.435l0.006 0.002v1.931c-0.66 0.010-2.504-0.011-3.731-0.502-0.028-0.012-0.061-0.018-0.096-0.018-0.143 0-0.258 0.116-0.258 0.258 0 0.018 0.002 0.037 0.006 0.054l-0-0.002c0.004 0.019 0.147 0.73 0.31 2.122-1.264 1.007-4.212 3.606-5.524 6.843-0.059 0.14-0.093 0.302-0.093 0.472 0 0.453 0.242 0.849 0.603 1.066l0.006 0.003c0.107 0.065 0.234 0.131 0.365 0.188l0.021 0.008c-0.113 0.159-0.223 0.342-0.32 0.532l-0.012 0.025c-0.016 0.032-0.025 0.070-0.025 0.111 0 0.133 0.101 0.243 0.23 0.256l0.001 0c1.57 0.161 3.032 1.247 3.596 1.714l-0.153 0.103c-0.272 0.186-0.461 0.475-0.51 0.811l-0.001 0.006-0.021 0.151c-0.005 0.036-0.008 0.078-0.008 0.12 0 0.471 0.382 0.853 0.853 0.853h10.758c0.142-0 0.258-0.116 0.258-0.258 0-0.008-0-0.016-0.001-0.024l0 0.001c-0.003-0.037-0.123-1.378-0.219-3.285 0.124 0.099 0.263 0.193 0.409 0.275l0.015 0.008c0.469 0.281 1.012 0.513 1.586 0.667l0.045 0.010c0.125 0.378 0.25 0.686 0.391 0.986l-0.023-0.053c0.035 0.071 0.1 0.123 0.178 0.14l0.002 0c0.016 0.003 0.033 0.005 0.052 0.005 0 0 0 0 0 0v0c0.065 0 0.124-0.024 0.169-0.063l-0 0c2.698-2.336 3.404-6.205 3.535-7.1 0.525-0.155 0.97-0.447 1.308-0.834l0.003-0.003c0.167-0.187 0.269-0.435 0.269-0.707 0-0.185-0.047-0.359-0.13-0.51l0.003 0.006-0.14-0.258c0.496-0.563 0.8-1.306 0.8-2.12 0-1.398-0.893-2.587-2.14-3.028l-0.022-0.007zM20.619 5.992c-0.058-0.061-0.093-0.143-0.093-0.234 0-0.008 0-0.017 0.001-0.025l-0 0.001c0.021-0.181 0.173-0.32 0.357-0.32 0.002 0 0.004 0 0.006 0h1.311c0 0 0 0 0 0 0.19 0 0.343 0.154 0.343 0.343 0 0.008-0 0.016-0.001 0.024l0-0.001c-0.020 0.181-0.173 0.32-0.357 0.32-0.002 0-0.004-0-0.006-0h-1.311c-0 0-0.001 0-0.002 0-0.098 0-0.187-0.042-0.249-0.108l-0-0zM12.513 6.436c-0.245 0-0.445-0.255-0.445-0.568s0.199-0.568 0.445-0.568 0.444 0.255 0.444 0.568-0.199 0.568-0.444 0.568zM14.408 5.3c0.088 0 0.25 0.216 0.25 0.568s-0.162 0.568-0.25 0.568-0.25-0.216-0.25-0.568 0.162-0.568 0.25-0.568zM10.183 6.962c-0.006-0.015-0.013-0.028-0.021-0.040l0.001 0.001c-0.056-0.084-0.098-0.182-0.12-0.287l-0.001-0.005c-0.004-0.019-0.006-0.042-0.006-0.065 0-0.114 0.054-0.216 0.138-0.28l0.001-0.001c0.059-0.049 0.136-0.079 0.219-0.079 0.050 0 0.098 0.011 0.14 0.030l-0.002-0.001c0.054 0.024 0.101 0.055 0.141 0.093l-0-0c0.048 0.056 0.119 0.092 0.198 0.092 0.059 0 0.113-0.020 0.157-0.053l-0.001 0c0.062-0.049 0.101-0.124 0.101-0.209 0-0.007-0-0.013-0.001-0.020l0 0.001-0.059-1.138c-0.001-0.022-0.002-0.048-0.002-0.075 0-0.549 0.337-1.019 0.816-1.215l0.009-0.003c1.009-0.398 1.632-0.136 1.931 0.078 0.098 0.070 0.16 0.183 0.16 0.311 0 0 0 0 0 0v0 0.73c-0.001 0.084-0.031 0.16-0.081 0.22l0-0.001c-0.101 0.129-0.176 0.283-0.215 0.451l-0.002 0.008c-0.015 0.059-0.067 0.102-0.13 0.102-0 0-0 0-0 0h-0.003c-0 0-0 0-0 0-0.062 0-0.114-0.040-0.132-0.096l-0-0.001c-0.131-0.424-0.487-0.729-0.906-0.729-0.53 0-0.961 0.486-0.961 1.084s0.431 1.084 0.961 1.084c0 0 0.593 0.051 0.959-0.334 0.029-0.032 0.070-0.052 0.116-0.053h0.015c0.051 0 0.097 0.023 0.128 0.059l0 0c0.070 0.078 0.153 0.144 0.245 0.194l0.005 0.002v1.26c0 0.003 0 0.006 0 0.009 0 0.272-0.139 0.512-0.35 0.652l-0.011 0.007c-0.073 0.046-0.161 0.073-0.256 0.073-0.046 0-0.091-0.007-0.133-0.019l0.003 0.001c-0.837-0.229-1.313-0.51-1.565-0.705-0.149-0.118-0.259-0.28-0.311-0.467l-0.002-0.006-0.093-0.339c-0.031-0.11-0.131-0.19-0.249-0.19-0.027 0-0.053 0.004-0.077 0.012l0.002-0c-0.583 0.177-0.744-0.117-0.758-0.146zM10.756 8.753l0.081 0.123c0.115 0.173 0.254 0.32 0.415 0.439l0.005 0.003c0.317 0.23 0.684 0.418 1.078 0.546l0.028 0.008v1.099c-0.663-0.251-1.21-0.68-1.6-1.23l-0.007-0.011zM10.433 10.169c0.507 0.647 1.196 1.129 1.99 1.372l0.028 0.007c0.242 0.419 0.469 0.908 0.652 1.418l0.020 0.064c-0.402 0.926-1.453 3.158-3.060 5.232-0.019-1.789-0.067-3.661-0.172-5.161-0.059-0.656-0.060-2.341 0.541-2.932zM13.715 15.192c-0.626 1.544-2.473 3.843-3.64 5.235 0-0.433-0.001-0.885-0.003-1.348 1.607-1.935 2.73-4.106 3.294-5.326 0.126 0.415 0.25 0.888 0.361 1.417-0.003 0.006-0.007 0.013-0.011 0.020l-0.001 0.001zM6.942 20.001c-0.525-0.669-1.103-1.256-1.742-1.772l-0.021-0.016 1.688-1.462c0.040 0.986 0.067 2.069 0.075 3.25zM6.894 24.212h-1.416c-0 0-0 0-0 0-0.186 0-0.337-0.151-0.337-0.337 0-0.017 0.001-0.033 0.004-0.049l-0 0.002 0.021-0.151c0.028-0.193 0.135-0.357 0.286-0.46l0.002-0.002 0.431-0.291c0.069-0.047 0.114-0.125 0.114-0.214 0-0.074-0.031-0.14-0.080-0.187l-0-0c-0.075-0.071-1.748-1.637-3.758-2.010 0.343-0.542 1.181-1.633 2.555-2.009 0.343 0.267 1.533 1.24 2.217 2.403 0.004 0.006 0.008 0.011 0.012 0.017q-0.002 1.542-0.051 3.287zM9.524 24.212h-2.113c0.239-8.219-0.431-13.106-0.666-14.533 1.065 0.321 2.349 0.386 3.111 0.393-0.641 0.993-0.499 2.829-0.477 3.071 0.261 3.722 0.17 9.765 0.146 11.069zM10.859 24.212h-0.819c0.007-0.398 0.020-1.217 0.028-2.271h0.417c0.207 0 0.374 0.168 0.374 0.374v0zM11.985 24.212h-0.611v-1.966c0-0.169 0.137-0.305 0.305-0.305s0.305 0.137 0.305 0.305v0zM11.68 21.425c-0 0-0 0-0 0-0.229 0-0.435 0.094-0.584 0.245l-0 0c-0.109-0.103-0.244-0.179-0.394-0.217l-0.006-0.001c1.706-1.618 2.868-3.869 3.284-4.752 0.108 0.826 0.17 1.781 0.17 2.75 0 0.014 0 0.027-0 0.041v-0.002 2.964h-1.648v-0.206c-0.001-0.453-0.368-0.821-0.821-0.821h-0zM14.666 24.212v-4.723c0-5.071-1.508-7.775-1.787-8.233v-0.986c1.095 0.086 2.577-0.183 3.289-0.332-0.98 4.283-0.353 12.605-0.213 14.274zM23.56 14.857c-0.24 0.268-0.644 0.611-1.206 0.717-0.111 0.021-0.195 0.112-0.208 0.223l-0 0.001c-0.005 0.043-0.505 4.21-3.122 6.711-0.262-0.648-0.793-2.186-0.686-3.764 0.357-0.229 1.422-1.012 2.576-2.818 0.025-0.039 0.040-0.087 0.040-0.139 0-0.080-0.037-0.152-0.094-0.2l-0-0c-0.171-0.151-0.322-0.319-0.451-0.502l-0.006-0.009c-0.056-0.079-0.090-0.177-0.090-0.283 0-0.067 0.014-0.132 0.038-0.19l-0.001 0.003 0.004-0.009c0.279 0.114 0.603 0.191 0.94 0.215l0.010 0.001q0.117 0.008 0.233 0.008c0.003 0 0.006 0 0.009 0 0.767 0 1.471-0.272 2.019-0.725l-0.005 0.004 0.072 0.132c0.041 0.075 0.066 0.165 0.066 0.26 0 0.14-0.052 0.267-0.138 0.364l0-0.001zM23.373 13.582c-0.48 0.448-1.127 0.724-1.838 0.724-1.441 0-2.618-1.131-2.692-2.554l-0-0.007c-0.002-0.037-0.003-0.080-0.003-0.123 0-1.175 0.747-2.176 1.792-2.553l0.019-0.006c0.317-0.112 0.54-0.409 0.54-0.758v-1.177l0.687-0.179v1.357c0 0 0 0.001 0 0.001 0 0.348 0.222 0.643 0.532 0.754l0.006 0.002c1.065 0.376 1.815 1.374 1.815 2.548 0 0.778-0.329 1.479-0.856 1.971l-0.002 0.001z"></path>
<path d="M21.17 10.443c0 0 0 0 0 0 0.189 0 0.342-0.153 0.342-0.342s-0.153-0.342-0.342-0.342c-0.189 0-0.342 0.153-0.342 0.342 0 0 0 0 0 0v0c0 0.189 0.153 0.342 0.342 0.342v0z"></path>
<path d="M23.54 11.153c-0.080-0.354-0.392-0.614-0.764-0.614-0.043 0-0.085 0.003-0.126 0.010l0.005-0.001c-0.301 0.039-0.573 0.136-0.814 0.279l0.010-0.005c-1.056 0.656-1.901 0.008-1.901 0.008-0.036-0.020-0.079-0.032-0.125-0.032-0.114 0-0.211 0.074-0.245 0.177l-0.001 0.002c-0.064 0.189-0.1 0.407-0.1 0.634 0 1.095 0.855 1.99 1.934 2.053l0.006 0q0.060 0.003 0.119 0.003c1.135-0 2.055-0.92 2.055-2.056 0-0.163-0.019-0.321-0.055-0.473l0.003 0.014zM20.918 12.645c-0 0-0 0-0 0-0.184 0-0.333-0.149-0.333-0.333s0.149-0.333 0.333-0.333c0.184 0 0.333 0.149 0.333 0.333v0c0 0.184-0.149 0.333-0.333 0.333v0zM22.306 12.22c-0 0-0 0-0 0-0.184 0-0.333-0.149-0.333-0.333s0.149-0.333 0.333-0.333c0.184 0 0.333 0.149 0.333 0.333 0 0 0 0 0 0v0c-0 0.184-0.149 0.333-0.333 0.333v0z"></path>
</symbol>
<symbol id="icon-wizard" viewBox="0 0 26 32">
<path d="M0.913 24.503c0.006 0.138 0.119 0.247 0.258 0.247v0c0.004 0 0.008 0 0.011 0v0h2.207c0 0 0.001 0 0.001 0 0.251 0 0.455-0.204 0.455-0.455 0-0.040-0.005-0.079-0.015-0.117l0.001 0.003c-0.602-2.294-0.069-4.306 0.263-5.224 0.181-0.507 0.467-0.937 0.834-1.283l0.002-0.002c0.801-0.738 1.772-0.875 2.647-0.776 0.015 0.002 2.989 0.456 3.879 3.628 0.028 0.115 0.13 0.199 0.251 0.199 0.143 0 0.258-0.116 0.258-0.258 0-0.021-0.002-0.041-0.007-0.061l0 0.002c-0.553-2.364-2.119-3.675-3.336-4.359-0.728-0.422-1.575-0.742-2.474-0.914l-0.051-0.008q-1.674-0.267-2.517-1.103c-0.413-0.806-0.425-1.711 0.034-2.146 0.472-0.448 1.193-0.187 1.193-0.187v0c0.061 0.398 0.171 0.756 0.324 1.090l-0.010-0.025c0.142 0.376 0.346 0.698 0.602 0.97l-0.001-0.002c0.729 0.783 1.717 1.040 1.843 1.070 2.356 0.732 3.953 2.223 4.747 4.431 0.314 0.851 0.496 1.833 0.496 2.858 0 0.103-0.002 0.206-0.005 0.309l0-0.015c-0.001 0.007-0.001 0.014-0.001 0.020v2.096c-0 0.001-0 0.003-0 0.004 0 0.142 0.116 0.258 0.258 0.258s0.258-0.116 0.258-0.258c0-0.002 0-0.003-0-0.005v0-2.087c0.003-0.043 0.012-0.19 0.009-0.417l0.089-3.942c0.023-0.090 0.045-0.18 0.069-0.269 0.68-2.513 0.143-5.748 0.143-5.748 1.377 2.616 0.914 5.007 0.631 6.505-0.103 0.543-0.22 1.085-0.22 1.643v4.314c-0 0.001-0 0.003-0 0.004 0 0.142 0.116 0.258 0.258 0.258s0.258-0.116 0.258-0.258c0-0.002 0-0.003-0-0.005v0-4.314c0-0.001 0-0.002 0-0.004 0-0.535 0.074-1.052 0.211-1.543l-0.010 0.040c0.192-0.699 0.225-1.852 0.264-3.096 0.644 0.588 1.459 1 2.361 1.154l0.028 0.004c-0.083 0.309-0.132 0.664-0.136 1.030l-0 0.002c-0 0.001-0 0.002-0 0.004 0 0.141 0.113 0.256 0.254 0.258h0.004c0.141-0 0.256-0.113 0.258-0.254v-0c0.010-0.707 0.195-1.147 0.199-1.156 0.001-0.001 0.001-0.002 0.001-0.004s0.002-0.003 0.002-0.005c0.055-0.142 0.14-0.263 0.248-0.358l0.001-0.001c0.139-0.12 0.321-0.193 0.521-0.193 0.046 0 0.090 0.004 0.134 0.011l-0.005-0.001c0.266 0.042 0.489 0.194 0.625 0.408l0.002 0.004c0.078 0.124 0.14 0.268 0.177 0.422l0.002 0.010c-0.646 1.107-0.738 3.331-0.693 5.092v0 0c0 0.014 0.001 0.028 0.001 0.042 0.004 0.26-0.013 1.645-0.836 2.354-0.044 0.037-0.072 0.092-0.072 0.153 0 0.109 0.088 0.198 0.197 0.198h2.38c0.005 0 0.009 0 0.014 0 0.138-0 0.25-0.108 0.257-0.244l0-0.001c0.097-1.845-0.015-3.721-0.136-5.032h0.328c0.108 0.168 0.264 0.298 0.448 0.371l0.006 0.002c0.009 2.646-0.005 4.623-0.005 4.643 0 0 0 0.001 0 0.002 0 0.142 0.114 0.257 0.256 0.258h0.002c0 0 0 0 0 0 0.142 0 0.257-0.114 0.258-0.256v-0c0-0.014 0.007-1.022 0.008-2.557l0.954-0.493c-0.010 1.244-0.028 2.263-0.054 3.040-0 0.003-0 0.006-0 0.009 0 0.139 0.111 0.253 0.249 0.258h0.009c0.139-0 0.253-0.111 0.258-0.249v-0c0.037-1.111 0.058-2.711 0.062-4.753 0.344-0.207 0.57-0.577 0.571-1.001v-1.418c-0.001-0.426-0.23-0.799-0.571-1.002l-0.005-0.003c-0.016-3.197-0.055-6.253-0.077-7.799-0-0.011-0-0.025-0-0.038 0-0.462 0.085-0.904 0.239-1.312l-0.008 0.025c0.395-1.078 0.729-2.357 0.942-3.677l0.016-0.123c0.002-0.011 0.003-0.024 0.003-0.037 0-0.051-0.015-0.099-0.041-0.14l0.001 0.001c-0.748-1.172-2.409-2.286-2.48-2.333-0.040-0.027-0.090-0.043-0.143-0.043-0.068 0-0.13 0.026-0.176 0.069l0-0c-1.599 1.491-1.951 3.83-1.965 3.929-0.002 0.011-0.003 0.024-0.003 0.037 0 0.052 0.015 0.101 0.042 0.141l-0.001-0.001c0.501 0.773 1.39 1.405 1.78 1.66l-0.122 0.291c-0.153 0.358-0.242 0.774-0.242 1.211 0 0.062 0.002 0.123 0.005 0.183l-0-0.008c0.104 1.85 0.176 4.5 0.213 7.877-0.214 0.093-0.383 0.256-0.481 0.458l-0.002 0.006h-0.907c-0.055-0.19-0.13-0.355-0.226-0.507l0.005 0.008c-0.217-0.342-0.569-0.582-0.979-0.646l-0.008-0.001c-0.061-0.010-0.131-0.016-0.203-0.016-0.329 0-0.63 0.12-0.862 0.318l0.002-0.002c-0.123 0.106-0.226 0.232-0.304 0.373l-0.004 0.007c-1.023-0.148-1.909-0.65-2.546-1.374l-0.004-0.005c-0.009-0.010-0.019-0.019-0.030-0.028l-0.001-0c-0.061-1.323-0.424-2.666-1.416-3.614-0.004-0.053-0.008-0.105-0.013-0.159-0.026-0.281-0.094-0.54-0.197-0.779l0.006 0.017c-0.182-0.422-0.409-0.611-0.614-0.686-0.038-0.578-0.114-1.112-0.229-1.633l0.013 0.071c2.499 0.353 4.098-0.239 5.028-0.843 1.155-0.749 1.563-1.667 1.58-1.706 0.013-0.030 0.021-0.066 0.021-0.103 0-0.131-0.098-0.24-0.225-0.256l-0.001-0c-2.046-0.253-4.334-0.237-6.221-0.144-0.157-1.24-0.812-2.302-1.756-2.995l-0.012-0.009c-0.867-0.649-1.861-0.963-2.542-1.111-0.090-0.020-0.193-0.032-0.298-0.032-0.466 0-0.88 0.224-1.139 0.571l-0.003 0.004c-0.873 1.175-1.557 1.492-1.978 1.551-0.402 0.056-0.624-0.11-0.63-0.115-0.044-0.036-0.101-0.058-0.163-0.058-0.143 0-0.258 0.116-0.258 0.258 0 0.011 0.001 0.022 0.002 0.033l-0-0.001c0.025 0.204 0.063 0.386 0.115 0.563l-0.006-0.024c0.147 0.502 0.515 0.896 0.988 1.077l0.011 0.004c0.178 0.070 0.384 0.111 0.599 0.111 0.333 0 0.642-0.097 0.903-0.265l-0.007 0.004c0.217-0.136 0.404-0.241 0.551-0.318l-0.075 1.324c-0.621 0.098-1.183 0.202-1.66 0.308-2.69 0.598-3.822 0.26-3.832 0.257-0.024-0.008-0.052-0.013-0.080-0.013-0.143 0-0.258 0.116-0.258 0.258 0 0.062 0.022 0.119 0.058 0.163l-0-0c1.050 1.288 2.341 1.686 3.534 1.686 0.594-0.005 1.166-0.091 1.709-0.245l-0.045 0.011c-0.036 0.099-0.069 0.218-0.091 0.341l-0.002 0.014c-0.876 0.151-2.636 0.642-3.629 2.205-0.302 0.458-0.482 1.021-0.482 1.625 0 0.235 0.027 0.463 0.078 0.682l-0.004-0.020c0.093 0.378 0.24 0.711 0.435 1.010l-0.008-0.013c-0.248 1.394-0.576 2.611-0.996 3.785l0.050-0.161c-1.071 3.049-0.921 6.88-0.915 7.042zM22.062 1.441c0.424 0.303 1.534 1.138 2.108 1.982-0.065 0.407-0.35 2.046-0.917 3.602-0.166 0.435-0.262 0.938-0.262 1.463 0 0.016 0 0.032 0 0.048l-0-0.002c0.022 1.519 0.059 4.497 0.075 7.633-0.024-0.002-0.048-0.004-0.073-0.004h-0.911c-0.038-3.352-0.102-5.986-0.213-7.831-0.003-0.043-0.004-0.092-0.004-0.142 0-0.468 0.132-0.905 0.36-1.276l-0.006 0.011c0.31-0.534 1.004-1.833 0.938-2.999-0.015-0.293-0.111-0.562-0.266-0.786l0.003 0.005c-0.129-0.188-0.342-0.31-0.584-0.31-0.238 0-0.449 0.118-0.577 0.299l-0.002 0.002c-0.252 0.367-0.436 0.801-0.522 1.269l-0.003 0.021c-0.004 0.017-0.006 0.037-0.006 0.057 0 0.122 0.082 0.226 0.194 0.258l0.002 0c0.018 0.005 0.039 0.007 0.060 0.007 0.126 0 0.23-0.090 0.254-0.209l0-0.002c0.059-0.342 0.167-0.649 0.317-0.929l-0.008 0.016c0.052-0.094 0.15-0.156 0.262-0.156 0.118 0 0.22 0.069 0.269 0.168l0.001 0.002c0.047 0.089 0.078 0.192 0.089 0.302l0 0.003c0.005 0.068 0.008 0.147 0.008 0.227 0 0.225-0.024 0.445-0.068 0.657l0.004-0.021c-0.081 0.27-0.289 0.613-0.826 0.663-0.042 0.004-0.090 0.007-0.139 0.007-0.446 0-0.844-0.204-1.105-0.524l-0.002-0.003c-0.032-0.041-0.063-0.083-0.092-0.125 0.079-0.425 0.466-2.18 1.642-3.385zM21.504 17.11c0-0.238 0.193-0.43 0.431-0.431h1.058c0.359 0 0.65 0.291 0.65 0.65v1.417c-0 0.359-0.291 0.65-0.65 0.65h-1.058c-0.238-0-0.43-0.193-0.431-0.431v-0zM20.116 17.218h0.873v1.74h-1.352c0.092-0.696 0.242-1.313 0.479-1.74zM7.060 9.313c-0.167-0.136-0.202-0.411-0.201-0.509-0-0.012-0-0.025-0-0.039 0-0.345 0.099-0.667 0.271-0.939l-0.004 0.007c0.134-0.029 0.269-0.054 0.405-0.077 0.163 0.211 0.3 0.454 0.401 0.714l0.007 0.020c0.094 0.248 0.323 0.424 0.595 0.438l0.002 0c0.014 0.001 0.028 0.001 0.043 0.001 0.001 0 0.002 0 0.004 0 0.257 0 0.481-0.145 0.592-0.358l0.002-0.004c0.148-0.276 0.26-0.596 0.316-0.934l0.003-0.018c0.747 0.018 1.463 0.109 2.154 0.267l-0.072-0.014c0.149 0.033 0.295 0.062 0.439 0.089 0.025 0.101 0.050 0.204 0.072 0.311-0.128 0.037-0.232 0.074-0.332 0.115l0.021-0.008c-0.094 0.040-0.158 0.131-0.158 0.238 0 0.143 0.116 0.258 0.258 0.258 0.036 0 0.070-0.007 0.102-0.021l-0.002 0.001c0.001-0.001 0.081-0.033 0.2-0.071q0.055 0.374 0.086 0.785h-0.41c-0.002 0-0.004 0-0.007 0-0.443 0-0.836 0.211-1.086 0.537l-0.002 0.003c-0.227 0.305-0.65 0.668-1.378 0.668-0.99 0-1.471-1.209-1.48-1.232-0.032-0.099-0.123-0.169-0.23-0.169-0.023 0-0.045 0.003-0.066 0.009l0.002-0c-0.243 0.051-0.426 0.028-0.545-0.070zM12.922 10.501c0.077 0.178 0.131 0.385 0.151 0.601l0.001 0.008c0.27 2.751-0.873 3.832-1.218 4.091-2.076-0.809-2.855-2.625-2.863-2.643-0.039-0.092-0.126-0.155-0.229-0.159h-0.010c0 0-0 0-0 0-0.1 0-0.187 0.057-0.23 0.141l-0.001 0.001c-0.069 0.131-0.172 0.236-0.297 0.305l-0.004 0.002c-0.28-0.231-0.516-0.504-0.699-0.811l-0.008-0.014c-0.16-0.266-0.255-0.587-0.255-0.931 0-0.179 0.026-0.352 0.074-0.515l-0.003 0.013c0.058-0.197 0.145-0.369 0.258-0.52l-0.003 0.004c0.261 0.462 0.835 1.216 1.794 1.216 0.942 0 1.495-0.477 1.792-0.876 0.156-0.203 0.4-0.332 0.673-0.332 0.002 0 0.005 0 0.007 0h0.682c0.18 0 0.32 0.262 0.388 0.419zM8.495 5.885l1.18-0.17c0.090-0.013 0.159-0.090 0.159-0.184 0-0.062-0.031-0.117-0.078-0.151l-0.001-0c-0.213-0.138-0.471-0.228-0.747-0.246l-0.005-0c-0.271-0.029-0.482-0.249-0.496-0.522l-0-0.001-0.123-2.194c0.145-1.013 1.35-0.566 1.362-0.561 1.105 0.513 2.229 1.453 2.485 3.169-0.33 0.019-0.646 0.041-0.941 0.063-0.132 0.012-0.235 0.123-0.235 0.257 0 0.143 0.116 0.258 0.258 0.258 0.005 0 0.011-0 0.016-0l-0.001 0c1.937-0.145 4.713-0.256 7.189 0.006-1.878 1.643-4.046 1.263-4.046 1.263s-2.571-0.522-5.235-0.428c-1.882 0.066-2.291-0.175-2.369-0.322 0.502-0.082 1.049-0.162 1.629-0.235z"></path>
<path d="M11.845 21.228c-0.132 0.013-0.234 0.123-0.234 0.257 0 0.008 0 0.017 0.001 0.025l-0-0.001q0.007 0.071 0.012 0.143c0.010 0.134 0.121 0.238 0.257 0.239v0c0.006 0 0.013 0 0.020-0.001 0.134-0.010 0.239-0.122 0.239-0.257 0-0.007-0-0.014-0.001-0.020l0 0.001q-0.006-0.077-0.013-0.152c-0.013-0.132-0.123-0.234-0.257-0.234-0.008 0-0.017 0-0.025 0.001l0.001-0z"></path>
<path d="M10.439 8.871c0.107 0.011 0.204 0.029 0.298 0.053l-0.014-0.003c0.021 0.006 0.044 0.009 0.068 0.009 0.143 0 0.258-0.116 0.258-0.258 0-0.118-0.079-0.217-0.187-0.248l-0.002-0c-0.105-0.029-0.232-0.052-0.362-0.066l-0.011-0.001c-0.008-0.001-0.018-0.001-0.027-0.001-0.143 0-0.258 0.116-0.258 0.258 0 0.135 0.104 0.246 0.235 0.257l0.001 0z"></path>
</symbol>
<symbol id="icon-cog" viewBox="0 0 32 32">
<path d="M29.181 19.070c-1.679-2.908-0.669-6.634 2.255-8.328l-3.145-5.447c-0.898 0.527-1.943 0.829-3.058 0.829-3.361 0-6.085-2.742-6.085-6.125h-6.289c0.008 1.044-0.252 2.103-0.811 3.070-1.679 2.908-5.411 3.897-8.339 2.211l-3.144 5.447c0.905 0.515 1.689 1.268 2.246 2.234 1.676 2.903 0.672 6.623-2.241 8.319l3.145 5.447c0.895-0.522 1.935-0.82 3.044-0.82 3.35 0 6.067 2.725 6.084 6.092h6.289c-0.003-1.034 0.259-2.080 0.811-3.038 1.676-2.903 5.399-3.894 8.325-2.219l3.145-5.447c-0.899-0.515-1.678-1.266-2.232-2.226zM16 22.479c-3.578 0-6.479-2.901-6.479-6.479s2.901-6.479 6.479-6.479c3.578 0 6.479 2.901 6.479 6.479s-2.901 6.479-6.479 6.479z"></path>
</symbol>
<symbol id="icon-cross" viewBox="0 0 32 32">
<path d="M31.708 25.708c-0-0-0-0-0-0l-9.708-9.708 9.708-9.708c0-0 0-0 0-0 0.105-0.105 0.18-0.227 0.229-0.357 0.133-0.356 0.057-0.771-0.229-1.057l-4.586-4.586c-0.286-0.286-0.702-0.361-1.057-0.229-0.13 0.048-0.252 0.124-0.357 0.228 0 0-0 0-0 0l-9.708 9.708-9.708-9.708c-0-0-0-0-0-0-0.105-0.104-0.227-0.18-0.357-0.228-0.356-0.133-0.771-0.057-1.057 0.229l-4.586 4.586c-0.286 0.286-0.361 0.702-0.229 1.057 0.049 0.13 0.124 0.252 0.229 0.357 0 0 0 0 0 0l9.708 9.708-9.708 9.708c-0 0-0 0-0 0-0.104 0.105-0.18 0.227-0.229 0.357-0.133 0.355-0.057 0.771 0.229 1.057l4.586 4.586c0.286 0.286 0.702 0.361 1.057 0.229 0.13-0.049 0.252-0.124 0.357-0.229 0-0 0-0 0-0l9.708-9.708 9.708 9.708c0 0 0 0 0 0 0.105 0.105 0.227 0.18 0.357 0.229 0.356 0.133 0.771 0.057 1.057-0.229l4.586-4.586c0.286-0.286 0.362-0.702 0.229-1.057-0.049-0.13-0.124-0.252-0.229-0.357z"></path>
</symbol>
<symbol id="icon-play3" viewBox="0 0 32 32">
<path d="M6 4l20 12-20 12z"></path>
</symbol>
</defs>
</svg>
