<!-- Generated by IcoMoon.io -->
<svg version="1.1" xmlns="http://www.w3.org/2000/svg" width="26" height="32" viewBox="0 0 26 32">
<path d="M1.797 13.064c0.056 0.013 0.121 0.021 0.187 0.021 0.020 0 0.039-0.001 0.059-0.002l-0.003 0c0.050 0.356 0.234 0.81 0.701 1.055 0.091 0.556 0.457 2.651 1.018 4.075 0.026 0.065 0.075 0.115 0.137 0.142l0.002 0.001c0.031 0.007 0.066 0.011 0.102 0.011 0.034 0 0.068-0.003 0.101-0.010l-0.003 0.001c1.159-0.501 2.14-1.028 3.071-1.625l-0.084 0.051 0.001-0.001c0.215-0.138 0.422-0.278 0.616-0.417v0l0.008-0.006c0.031-0.022 0.062-0.044 0.093-0.066 0.014-0.010 0.026-0.021 0.037-0.034l0-0 0.442-0.339c0.101 0.922 0.766 1.665 1.639 1.881l0.015 0.003c0.212 0.541 0.361 1.169 0.417 1.823l0.002 0.025c0.002 0.022 0.003 0.048 0.003 0.074 0 0.185-0.054 0.357-0.147 0.501l0.002-0.004c-0.244 0.388-0.738 1.374-0.9 2.373-0.338 0.221-0.613 0.511-0.811 0.851l-0.006 0.012c-0.033 0.038-0.055 0.087-0.061 0.141l-0 0.001c-0.001 0.008-0.001 0.016-0.001 0.025 0 0.117 0.077 0.216 0.184 0.248l0.002 0c1.151 0.326 2.501 0.567 3.889 0.675l0.073 0.005c0.452 0.035 0.945 0.058 1.463 0.058 1.852 0 4.030-0.293 5.797-1.363 0.086-0.054 0.185-0.098 0.291-0.125l0.007-0.002c0 0 0 0 0 0 0.237 0 0.455-0.076 0.633-0.206l-0.003 0.002c0.331-0.247 0.621-0.518 0.877-0.818l0.006-0.007c0.167-0.191 0.269-0.442 0.269-0.717 0-0.097-0.013-0.19-0.036-0.279l0.002 0.008c1.219-1.466 3.058-4.706 2.276-10.381-0.018-0.127-0.126-0.223-0.256-0.223-0.003 0-0.006 0-0.009 0h0c-0.030 0.001-0.721 0.038-1.058 0.986l-3.142 2.579c-0.062 0.049-0.102 0.125-0.102 0.21 0 0.060 0.020 0.115 0.053 0.159l-0-0.001c0.048 0.060 0.121 0.098 0.202 0.098 0.062 0 0.12-0.022 0.164-0.059l-0 0 2.72-2.232c-0.019 1.213-0.226 5.576-2.145 7.626-0.081-0.022-0.173-0.036-0.269-0.036h-0.001c-0.607-0.694-1.635-1.98-2.25-3.363-0.001-0.002-0.002-0.003-0.003-0.005q-0.025-0.056-0.049-0.112c-0.637-1.498-0.366-3.040-0.206-3.674 0.309-0.148 0.519-0.457 0.519-0.816 0-0.101-0.017-0.199-0.048-0.29l0.002 0.006c-0.222-0.653-0.594-1.205-1.076-1.637l-0.004-0.003c-0.199-0.181-0.465-0.293-0.757-0.293-0.273 0-0.523 0.097-0.718 0.259l0.002-0.002c-0.121 0.099-0.24 0.205-0.356 0.318l-0.407-0.407c-0.169-0.169-0.403-0.274-0.662-0.274-0.245 0-0.467 0.094-0.634 0.248l0.001-0.001-0.041 0.038-0.197-1.848c-0.001-0.008-0.001-0.016-0.001-0.025 0-0.082 0.043-0.153 0.107-0.194l0.001-0.001c0.456-0.297 0.84-0.661 1.151-1.082l0.008-0.012c0.075 0.302 0.181 0.567 0.319 0.812l-0.008-0.016c0.281 0.452 0.669 0.815 1.129 1.058l0.016 0.008c0.263 0.139 0.576 0.222 0.907 0.223h0c0.001 0 0.003 0 0.004 0 0.246 0 0.481-0.049 0.696-0.138l-0.012 0.004c0.582-0.238 0.759-0.66 0.777-0.708 0.011-0.028 0.017-0.060 0.017-0.093 0-0.105-0.063-0.195-0.153-0.236l-0.002-0.001c-0.587-0.257-0.573-1.077-0.573-1.084 0-0.003 0-0.005 0-0.008v-2.738c0-1.002-0.266-1.752-0.791-2.23-0.371-0.329-0.861-0.53-1.399-0.53-0.033 0-0.066 0.001-0.099 0.002l0.005-0c-0.899 0.004-1.329 0.525-1.513 0.857-0.175 0.029-0.332 0.076-0.479 0.14l0.013-0.005c-0.183-0.13-0.391-0.25-0.611-0.349l-0.024-0.010c-0.138-0.061-0.283-0.116-0.431-0.166-0.314-0.111-0.676-0.175-1.052-0.175-0.324 0-0.637 0.048-0.933 0.136l0.023-0.006c-0.434 0.148-0.795 0.419-1.049 0.772l-0.004 0.006c-0.399 0.117-1.629 0.633-1.586 2.524 0.016 0.725 0.277 1.324 0.773 1.784 0.003 0.191 0.015 0.369 0.032 0.524l-0.398-0.369c-0.107-0.1-0.252-0.161-0.41-0.161-0.161 0-0.307 0.063-0.415 0.165l0-0-0.105 0.1-0.648-0.619 0.035-0.745c0.001-0.014 0.001-0.031 0.001-0.047 0-0.247-0.088-0.474-0.235-0.65l0.001 0.002-0.758-0.912c-0.044-0.054-0.107-0.091-0.18-0.099l-0.001-0c-0.007-0.001-0.014-0.001-0.022-0.001-0.126 0-0.23 0.089-0.254 0.208l-0 0.002-0.192 0.998-0.59 0.102-0.375-0.453c-0.044-0.054-0.107-0.091-0.18-0.098l-0.001-0c-0.007-0.001-0.014-0.001-0.022-0.001-0.125 0-0.23 0.089-0.254 0.208l-0 0.002-0.223 1.162-1.175 0.203c-0.073 0.011-0.135 0.051-0.176 0.108l-0.001 0.001c-0.028 0.041-0.045 0.092-0.045 0.146 0 0.079 0.036 0.15 0.092 0.198l0 0 1.031 0.866c0.193 0.163 0.445 0.262 0.721 0.262h0.021l0.921-0.017 0.804 0.829c-0.046 0.083-0.072 0.182-0.072 0.287 0 0.028 0.002 0.057 0.006 0.084l-0-0.003c0.022 0.144 0.090 0.27 0.189 0.363l0 0 2.322 2.261c-0.154 0.060-0.287 0.132-0.409 0.217l0.006-0.004c-0.193 0.137-0.326 0.347-0.358 0.59l-0 0.004c-0.004 0.033-0.007 0.071-0.007 0.109 0 0.216 0.079 0.415 0.21 0.567l-0.001-0.001q0.050 0.058 0.109 0.124c-0.496 0.398-1.261 1.006-1.864 1.462h-0q-0.202 0.153-0.361 0.268c-0.216-0.417-0.451-0.944-0.659-1.484l-0.039-0.115v-1.562c-0.001-0.24-0.096-0.457-0.25-0.617l0 0c0.039-0.233 0.061-0.501 0.061-0.774 0-0.33-0.032-0.652-0.094-0.964l0.005 0.031c-0.039-0.23-0.177-0.421-0.367-0.532l-0.004-0.002c-0.095-0.054-0.21-0.086-0.331-0.086-0.212 0-0.401 0.097-0.526 0.249l-0.001 0.001c-0.097 0.118-0.156 0.271-0.156 0.437 0 0.031 0.002 0.062 0.006 0.092l-0-0.004c0.018 0.142 0.029 0.291 0.034 0.438-0.198-0.171-0.43-0.309-0.685-0.402l-0.015-0.005c-0.068-0.025-0.146-0.039-0.227-0.039-0.228 0-0.43 0.111-0.554 0.283l-0.001 0.002c-0.077 0.107-0.123 0.241-0.123 0.385 0 0.183 0.074 0.348 0.193 0.468l-0-0c0.042 0.042 0.091 0.077 0.144 0.105l0.003 0.002c0.165 0.092 0.306 0.206 0.425 0.341l0.001 0.002c-0.205 0.031-0.389 0.096-0.556 0.19l0.008-0.004c-0.275 0.161-0.459 0.451-0.468 0.785l-0 0.001c-0.001 0.027-0.002 0.058-0.002 0.089 0 0.162 0.015 0.321 0.043 0.475l-0.002-0.016c0.048 0.268 0.245 0.481 0.501 0.551l0.005 0.001zM4.713 7.070l-0.792 0.015c-0.003 0-0.007 0-0.011 0-0.149 0-0.285-0.054-0.39-0.142l0.001 0.001-0.606-0.508 0.812-0.141c0.106-0.019 0.189-0.1 0.209-0.204l0-0.002 0.098-0.512 0.698 0.586c0.010 0.041 0.016 0.088 0.016 0.137 0 0.010-0 0.020-0.001 0.030l0-0.001zM15.864 20.009c-0.658-0.905-0.073-2.825 0.035-2.96 0.091 0.175 0.186 0.39 0.268 0.611l0.013 0.041 0.001 0.002c0.092 0.239 0.186 0.542 0.262 0.852l0.011 0.055c0.003 0.011 0.005 0.020 0.008 0.028l-0.001-0.002c0.454 1.352 1.461 2.376 2.079 2.907-0 0.010-0.001 0.022-0.001 0.034 0 0.102 0.014 0.201 0.040 0.294l-0.002-0.008c-0.447 0.248-1.574 0.597-1.574 0.597s-0.332-1.343-1.139-2.452zM16.378 15.752c0-0.005 0.001-0.009 0.001-0.014 0.002-0.051 0.003-0.111 0.003-0.172 0-0.409-0.047-0.808-0.135-1.19l0.007 0.036c0.405-0.248 0.68-0.404 0.856-0.499-0.007 0.112-0.012 0.243-0.012 0.375 0 0.78 0.149 1.526 0.419 2.21l-0.014-0.041c-0.242 0.133-0.447 0.266-0.642 0.411l0.015-0.011c-0.191-0.467-0.383-0.871-0.497-1.104zM8.784 15.725c-0.002-0.050-0.003-0.11-0.003-0.169 0-0.416 0.055-0.818 0.158-1.201l-0.007 0.032c0.792 0.751 1.7 1.391 2.691 1.89l0.065 0.029c0.216 0.108 0.471 0.171 0.741 0.171 0.294 0 0.571-0.075 0.812-0.208l-0.009 0.004c0.434-0.235 1.055-0.595 1.867-1.127 0.255-0.167 0.484-0.314 0.689-0.444 0.049 0.261 0.078 0.562 0.078 0.87 0 0.054-0.001 0.107-0.003 0.16l0-0.008c-0.021 0.82-0.637 1.51-1.426 1.604-0.041 0.003-0.242 0.013-0.315 0.008-0.419-0.030-0.809-0.099-1.183-0.203l0.042 0.010c-0.197-0.059-0.423-0.092-0.657-0.092s-0.46 0.034-0.674 0.096l0.017-0.004c-0.333 0.095-0.722 0.163-1.122 0.192l-0.019 0.001c-0.073 0.005-0.274-0.004-0.309-0.008-0.802-0.111-1.415-0.783-1.432-1.602l-0-0.002zM10.649 20.498c0.14-0.219 0.223-0.486 0.223-0.773 0-0.042-0.002-0.084-0.005-0.125l0 0.005c-0.036-0.397-0.095-0.758-0.179-1.108l0.010 0.052 2.821 0.378c0.244 0.034 0.43 0.241 0.43 0.492 0 0.026-0.002 0.052-0.006 0.077l0-0.003-0.058 0.383c-0.011 0.070-0.017 0.151-0.017 0.233 0 0.337 0.101 0.65 0.275 0.911l-0.004-0.006c0.284 0.417 0.488 0.911 0.578 1.444l0.003 0.022c-2.153 0.337-4.267-0.165-4.267-0.165v0l2.201-1.806c0.058-0.048 0.094-0.119 0.094-0.2 0-0.143-0.116-0.258-0.258-0.258-0.062 0-0.12 0.022-0.164 0.059l0-0-2.359 1.936c0.179-0.591 0.41-1.104 0.697-1.58l-0.017 0.031zM9.183 23.489c0.264-0.213 0.603-0.342 0.973-0.342 0.121 0 0.238 0.014 0.351 0.040l-0.010-0.002c3.527 0.78 6.098 0.123 7.536-0.485 0.14 0.249 0.284 0.463 0.444 0.664l-0.008-0.010c-3.443 1.375-7.913 0.469-9.286 0.135zM23.251 12.089c0-0.002-0-0.004-0-0.007 0-0.129 0.020-0.254 0.056-0.371l-0.002 0.009c0.107-0.336 0.261-0.512 0.387-0.603 0.516 4.224-0.473 6.992-1.473 8.633l-0.627-0.354c1.546-2.477 1.654-6.444 1.659-7.306zM20.678 20.481c0.203 0.165 0.388 0.327 0.55 0.482 0.109 0.105 0.177 0.252 0.177 0.415 0 0.145-0.054 0.278-0.143 0.379l0.001-0.001c-0.237 0.278-0.498 0.523-0.783 0.736l-0.012 0.009c-0.092 0.065-0.207 0.104-0.331 0.104-0.132 0-0.253-0.044-0.35-0.118l0.001 0.001c-0.212-0.162-0.4-0.331-0.573-0.515l-0.002-0.002c-0.096-0.103-0.156-0.242-0.156-0.395 0-0.123 0.038-0.236 0.103-0.33l-0.001 0.002c0.181-0.264 0.482-0.623 0.89-0.837 0.076-0.040 0.167-0.064 0.263-0.064 0.14 0 0.269 0.050 0.369 0.133l-0.001-0.001zM19.448 19.614c0.006 0.002 0.011 0.002 0.017 0.003 0.105 0.13 0.206 0.252 0.3 0.363-0.291 0.166-0.539 0.371-0.747 0.612l-0.003 0.004c-0.309-0.26-0.586-0.534-0.84-0.829l-0.008-0.009c0.24-0.126 0.525-0.2 0.827-0.2 0.161 0 0.318 0.021 0.466 0.061l-0.013-0.003zM18.299 17.988c0.233 0.376 0.479 0.73 0.718 1.052-0 0-0 0-0 0-0.429 0-0.832 0.112-1.181 0.309l0.012-0.006c-0.135-0.19-0.257-0.406-0.354-0.636l-0.009-0.023c0.198-0.306 0.475-0.545 0.803-0.692l0.012-0.005zM17.714 16.93c0.1 0.207 0.208 0.411 0.321 0.611-0.285 0.133-0.528 0.314-0.727 0.533l-0.002 0.002c-0.067-0.237-0.148-0.48-0.235-0.718 0.188-0.149 0.398-0.291 0.618-0.416l0.024-0.013zM13.229 7.341c-0.088 0.026-0.162 0.073-0.221 0.135l-0 0c-0.082 0.087-0.132 0.205-0.132 0.334 0 0 0 0 0 0v0 0.203c0 0.001 0 0.003 0 0.004 0 0.181-0.072 0.346-0.189 0.466l0-0c-0.415 0.425-0.914 0.767-1.469 1l-0.029 0.011c-0.066 0.027-0.142 0.043-0.223 0.043-0.121 0-0.233-0.036-0.327-0.098l0.002 0.001c-0.674-0.439-1.163-1.116-1.349-1.909l-0.004-0.021c-0.004-0.018-0.385-1.656 0.265-2.661 0.266 0.657 0.981 1.775 2.803 2.003 0.009 0.001 0.020 0.002 0.031 0.002 0.129 0 0.236-0.094 0.256-0.218l0-0.002c0.025-0.125 0.077-0.235 0.148-0.329l-0.001 0.002c0.073-0.093 0.186-0.152 0.312-0.152 0.008 0 0.016 0 0.024 0.001l-0.001-0c0.119 0.005 0.222 0.069 0.281 0.164l0.001 0.001c0.079 0.148 0.126 0.323 0.126 0.509 0 0.021-0.001 0.043-0.002 0.064l0-0.003c0.001 0.041-0.001 0.364-0.302 0.449zM13.157 10.26l-1.35 1.241-0.165-0.122-0.088-0.827c0.796-0.279 1.27-0.701 1.526-1.005zM15.030 2.813c0.338 0.52 0.341 0.939-0.004 1.319-0.178-0.696-0.531-1.293-1.009-1.762l-0.001-0.001c0.319-0.070 0.711-0.022 1.014 0.443zM5.174 5.859c-0.045-0.105-0.102-0.196-0.169-0.277l0.001 0.002-0.108-0.13 0.474-0.082c0.106-0.019 0.189-0.1 0.209-0.204l0-0.002 0.122-0.637 0.413 0.498c0.072 0.086 0.115 0.197 0.115 0.319 0 0.008-0 0.016-0.001 0.025l0-0.001-0.029 0.621-0.666 0.012c-0.003 0-0.007 0-0.011 0-0.122 0-0.234-0.044-0.32-0.118l0.001 0.001zM5.223 7.224l0.034-0.741c0.081 0.023 0.174 0.037 0.27 0.037h0.019l0.801-0.015 0.637 0.609-0.314 0.297-0.563-0.552c-0.046-0.046-0.11-0.074-0.181-0.074-0.143 0-0.258 0.116-0.258 0.258 0 0.072 0.030 0.137 0.077 0.184l0 0 0.55 0.539-0.285 0.27zM6.1 8.698c0-0.025 0.011-0.047 0.027-0.063l0-0 1.692-1.602c0.016-0.015 0.037-0.024 0.060-0.024s0.044 0.009 0.060 0.023l-0-0 0.914 0.846c0.138 0.449 0.346 0.839 0.614 1.179l-0.006-0.008-1.975 1.035-1.36-1.324c-0.016-0.016-0.027-0.038-0.027-0.063 0-0 0-0.001 0-0.001v0zM7.852 12.277c0.012-0.098 0.064-0.182 0.14-0.235l0.001-0.001c0.111-0.078 0.24-0.142 0.378-0.185l0.010-0.003c0.527 0.649 1.129 1.207 1.8 1.672l0.029 0.019c0.040 0.027 0.089 0.043 0.142 0.043 0.143 0 0.258-0.116 0.258-0.258 0-0.086-0.043-0.163-0.108-0.21l-0.001-0.001c-0.657-0.456-1.223-0.981-1.707-1.575l-0.012-0.015c0.159-0.309 0.372-0.568 0.629-0.776l0.005-0.004c0.068-0.056 0.155-0.090 0.251-0.090 0.088 0 0.169 0.029 0.234 0.077l-0.001-0.001 1.521 1.121-0.089 0.082c-0.071 0.065-0.166 0.106-0.27 0.106-0.071 0-0.138-0.019-0.196-0.052l0.002 0.001-0.186-0.104c-0.036-0.021-0.079-0.033-0.126-0.033-0.142 0-0.258 0.116-0.258 0.258 0 0.096 0.053 0.18 0.131 0.225l0.001 0.001 0.186 0.104c0.128 0.073 0.282 0.116 0.446 0.116 0.239 0 0.457-0.092 0.62-0.242l-0.001 0.001 2.34-2.151c0.075-0.069 0.175-0.111 0.284-0.111 0.116 0 0.221 0.047 0.297 0.123v0l0.42 0.42-2.52 2.874c-0.038 0.045-0.061 0.103-0.061 0.167 0 0.143 0.116 0.258 0.258 0.258 0.076 0 0.144-0.033 0.191-0.085l0-0 2.675-3.050c0.154-0.162 0.314-0.312 0.484-0.452l0.009-0.007c0.105-0.087 0.241-0.139 0.389-0.139 0.159 0 0.304 0.061 0.413 0.16l-0-0c0.42 0.376 0.742 0.854 0.928 1.395l0.007 0.023c0.012 0.036 0.020 0.078 0.020 0.122 0 0.156-0.092 0.291-0.226 0.352l-0.002 0.001c-0.449 0.205-1.195 0.613-2.204 1.398-0.819 0.637-1.739 1.243-2.705 1.776l-0.109 0.055c-0.109 0.060-0.239 0.096-0.377 0.096-0.135 0-0.262-0.034-0.373-0.093l0.004 0.002c-2.221-1.17-3.389-2.318-3.888-2.898-0.052-0.061-0.084-0.141-0.084-0.229 0-0.016 0.001-0.032 0.003-0.047l-0 0.002zM7.506 13.787v0c0.193 0.211 0.327 0.478 0.376 0.774l0.001 0.009c0.001 0.008 0.041 0.615-0.841 1.406-0.182-0.483-0.427-0.899-0.729-1.267l0.006 0.008c0.387-0.297 0.815-0.633 1.187-0.929zM5.601 15.252c0.089-0.064 0.191-0.138 0.307-0.224 0.304 0.364 0.545 0.793 0.699 1.262l0.008 0.027c-0.423 0.301-0.906 0.576-1.414 0.803l-0.054 0.021c0.397-0.772 0.45-1.601 0.455-1.89zM4.944 14.931c0.065 0.131 0.114 0.226 0.141 0.276-0.002 0.214-0.041 1.155-0.52 1.912-0.209-0.391-0.416-0.859-0.589-1.344l-0.024-0.076c0.402-0.171 0.737-0.434 0.989-0.763l0.004-0.006zM4.387 13.691c0.101 0.252 0.204 0.489 0.299 0.698-0.004 0.006-0.009 0.013-0.013 0.020l-0.001 0.001c-0.206 0.352-0.51 0.627-0.875 0.793l-0.012 0.005c-0.1-0.316-0.197-0.664-0.287-1.043 0.347-0.081 0.647-0.247 0.889-0.475l-0.001 0.001zM3.622 9.213c0.028-0.035 0.070-0.058 0.118-0.061l0.001-0c0.004-0 0.008-0 0.013-0 0.090 0 0.165 0.064 0.182 0.149l0 0.001c0.056 0.27 0.089 0.58 0.089 0.898 0 0.177-0.010 0.352-0.030 0.524l0.002-0.021c-0.007-0.001-0.014-0.003-0.021-0.004-0.085-0.013-0.183-0.021-0.283-0.021-0.031 0-0.062 0.001-0.092 0.002l0.004-0c0.014-0.168 0.022-0.364 0.022-0.562 0-0.273-0.015-0.542-0.045-0.807l0.003 0.033c-0.001-0.007-0.002-0.015-0.002-0.023 0-0.041 0.015-0.079 0.039-0.109l-0 0zM3.899 11.21c0.179 0.030 0.314 0.184 0.314 0.369 0 0 0 0.001 0 0.001v-0 1.529c-0.266 0.363-0.691 0.596-1.171 0.596-0.004 0-0.008-0-0.012-0h0.001c-0.355-0.157-0.454-0.494-0.48-0.705 0.321-0.117 0.546-0.42 0.546-0.775 0-0.002 0-0.004-0-0.006v0-0.002c0.050 0.007 0.109 0.012 0.168 0.012h0q0.053 0 0.109-0.004c0.136-0.008 0.243-0.12 0.243-0.258 0-0.143-0.116-0.258-0.258-0.258-0.008 0-0.015 0-0.023 0.001l0.001-0c-0.175 0.013-0.3-0.019-0.37-0.093-0.051-0.062-0.084-0.141-0.088-0.227l-0-0.001c0.362-0.167 0.705-0.228 1.020-0.181zM2.088 10.195c-0.034-0.019-0.059-0.051-0.068-0.089l-0-0.001c-0.002-0.010-0.004-0.021-0.004-0.033 0-0.031 0.010-0.060 0.027-0.084l-0 0c0.030-0.042 0.079-0.069 0.135-0.069 0.020 0 0.038 0.003 0.056 0.010l-0.001-0c0.365 0.129 0.662 0.374 0.854 0.689l0.004 0.007c-0.003 0.050-0.007 0.097-0.010 0.141-0.108 0.031-0.196 0.062-0.281 0.096l0.018-0.007c-0.191-0.273-0.435-0.495-0.72-0.655l-0.011-0.006zM1.768 11.977c0.004-0.15 0.085-0.28 0.206-0.351l0.002-0.001c0.115-0.064 0.249-0.109 0.391-0.127l0.006-0.001c0.024 0.179 0.099 0.338 0.21 0.464l-0.001-0.001c0 0.005-0.001 0.009-0.001 0.014l0.001 0.249c0 0.001 0 0.001 0 0.002 0 0.152-0.109 0.277-0.253 0.303l-0.002 0-0.085 0.015c-0.073 0.014-0.158 0.022-0.245 0.024l-0.001 0c-0.002 0-0.004 0-0.007 0-0.094 0-0.172-0.067-0.189-0.156l-0-0.001c-0.020-0.109-0.031-0.234-0.031-0.361 0-0.025 0-0.051 0.001-0.076l-0 0.004z"></path>
<path d="M18.674 14.906l-0.102 0.084c-0.058 0.048-0.094 0.119-0.094 0.2 0 0.143 0.116 0.258 0.258 0.258 0.062 0 0.12-0.022 0.164-0.059l-0 0 0.102-0.084c0.058-0.048 0.094-0.119 0.094-0.2 0-0.143-0.116-0.258-0.258-0.258-0.062 0-0.12 0.022-0.164 0.059l0-0z"></path>
<path d="M9.898 6.74c-0.053-0.006-0.101-0.019-0.147-0.036l0.004 0.001c-0.027-0.011-0.059-0.017-0.092-0.017-0.143 0-0.258 0.116-0.258 0.258 0 0.107 0.065 0.199 0.158 0.238l0.002 0.001c0.085 0.034 0.183 0.058 0.285 0.069l0.005 0c0.008 0.001 0.015 0.001 0.022 0.001 0 0 0 0 0.001 0 0.142 0 0.258-0.115 0.258-0.258 0-0.135-0.104-0.246-0.236-0.257l-0.001-0z"></path>
<path d="M10.896 6.706c-0.041 0.016-0.090 0.029-0.14 0.035l-0.003 0c-0.133 0.011-0.237 0.122-0.237 0.257 0 0.142 0.116 0.258 0.258 0.258 0 0 0 0 0.001 0h-0q0.011 0 0.022-0.001c0.107-0.011 0.206-0.036 0.298-0.072l-0.008 0.003c0.095-0.040 0.16-0.132 0.16-0.239 0-0.143-0.116-0.258-0.258-0.258-0.033 0-0.065 0.006-0.095 0.018l0.002-0.001z"></path>
<path d="M11.259 14.216l0.054 0.020q0.030 0.011 0.060 0.021c0.024 0.008 0.051 0.013 0.080 0.013 0.142 0 0.258-0.116 0.258-0.258 0-0.114-0.074-0.211-0.177-0.245l-0.002-0.001c-0.013-0.004-0.026-0.009-0.039-0.013l-0.048-0.019c-0.027-0.010-0.058-0.017-0.091-0.017-0.143 0-0.258 0.116-0.258 0.258 0 0.108 0.067 0.201 0.161 0.239l0.002 0.001z"></path>
</svg>
