<!-- Generated by IcoMoon.io -->
<svg version="1.1" xmlns="http://www.w3.org/2000/svg" width="26" height="32" viewBox="0 0 26 32">
<path d="M0.913 24.503c0.006 0.138 0.119 0.247 0.258 0.247v0c0.004 0 0.008 0 0.011 0v0h2.207c0 0 0.001 0 0.001 0 0.251 0 0.455-0.204 0.455-0.455 0-0.040-0.005-0.079-0.015-0.117l0.001 0.003c-0.602-2.294-0.069-4.306 0.263-5.224 0.181-0.507 0.467-0.937 0.834-1.283l0.002-0.002c0.801-0.738 1.772-0.875 2.647-0.776 0.015 0.002 2.989 0.456 3.879 3.628 0.028 0.115 0.13 0.199 0.251 0.199 0.143 0 0.258-0.116 0.258-0.258 0-0.021-0.002-0.041-0.007-0.061l0 0.002c-0.553-2.364-2.119-3.675-3.336-4.359-0.728-0.422-1.575-0.742-2.474-0.914l-0.051-0.008q-1.674-0.267-2.517-1.103c-0.413-0.806-0.425-1.711 0.034-2.146 0.472-0.448 1.193-0.187 1.193-0.187v0c0.061 0.398 0.171 0.756 0.324 1.090l-0.010-0.025c0.142 0.376 0.346 0.698 0.602 0.97l-0.001-0.002c0.729 0.783 1.717 1.040 1.843 1.070 2.356 0.732 3.953 2.223 4.747 4.431 0.314 0.851 0.496 1.833 0.496 2.858 0 0.103-0.002 0.206-0.005 0.309l0-0.015c-0.001 0.007-0.001 0.014-0.001 0.020v2.096c-0 0.001-0 0.003-0 0.004 0 0.142 0.116 0.258 0.258 0.258s0.258-0.116 0.258-0.258c0-0.002 0-0.003-0-0.005v0-2.087c0.003-0.043 0.012-0.19 0.009-0.417l0.089-3.942c0.023-0.090 0.045-0.18 0.069-0.269 0.68-2.513 0.143-5.748 0.143-5.748 1.377 2.616 0.914 5.007 0.631 6.505-0.103 0.543-0.22 1.085-0.22 1.643v4.314c-0 0.001-0 0.003-0 0.004 0 0.142 0.116 0.258 0.258 0.258s0.258-0.116 0.258-0.258c0-0.002 0-0.003-0-0.005v0-4.314c0-0.001 0-0.002 0-0.004 0-0.535 0.074-1.052 0.211-1.543l-0.010 0.040c0.192-0.699 0.225-1.852 0.264-3.096 0.644 0.588 1.459 1 2.361 1.154l0.028 0.004c-0.083 0.309-0.132 0.664-0.136 1.030l-0 0.002c-0 0.001-0 0.002-0 0.004 0 0.141 0.113 0.256 0.254 0.258h0.004c0.141-0 0.256-0.113 0.258-0.254v-0c0.010-0.707 0.195-1.147 0.199-1.156 0.001-0.001 0.001-0.002 0.001-0.004s0.002-0.003 0.002-0.005c0.055-0.142 0.14-0.263 0.248-0.358l0.001-0.001c0.139-0.12 0.321-0.193 0.521-0.193 0.046 0 0.090 0.004 0.134 0.011l-0.005-0.001c0.266 0.042 0.489 0.194 0.625 0.408l0.002 0.004c0.078 0.124 0.14 0.268 0.177 0.422l0.002 0.010c-0.646 1.107-0.738 3.331-0.693 5.092v0 0c0 0.014 0.001 0.028 0.001 0.042 0.004 0.26-0.013 1.645-0.836 2.354-0.044 0.037-0.072 0.092-0.072 0.153 0 0.109 0.088 0.198 0.197 0.198h2.38c0.005 0 0.009 0 0.014 0 0.138-0 0.25-0.108 0.257-0.244l0-0.001c0.097-1.845-0.015-3.721-0.136-5.032h0.328c0.108 0.168 0.264 0.298 0.448 0.371l0.006 0.002c0.009 2.646-0.005 4.623-0.005 4.643 0 0 0 0.001 0 0.002 0 0.142 0.114 0.257 0.256 0.258h0.002c0 0 0 0 0 0 0.142 0 0.257-0.114 0.258-0.256v-0c0-0.014 0.007-1.022 0.008-2.557l0.954-0.493c-0.010 1.244-0.028 2.263-0.054 3.040-0 0.003-0 0.006-0 0.009 0 0.139 0.111 0.253 0.249 0.258h0.009c0.139-0 0.253-0.111 0.258-0.249v-0c0.037-1.111 0.058-2.711 0.062-4.753 0.344-0.207 0.57-0.577 0.571-1.001v-1.418c-0.001-0.426-0.23-0.799-0.571-1.002l-0.005-0.003c-0.016-3.197-0.055-6.253-0.077-7.799-0-0.011-0-0.025-0-0.038 0-0.462 0.085-0.904 0.239-1.312l-0.008 0.025c0.395-1.078 0.729-2.357 0.942-3.677l0.016-0.123c0.002-0.011 0.003-0.024 0.003-0.037 0-0.051-0.015-0.099-0.041-0.14l0.001 0.001c-0.748-1.172-2.409-2.286-2.48-2.333-0.040-0.027-0.090-0.043-0.143-0.043-0.068 0-0.13 0.026-0.176 0.069l0-0c-1.599 1.491-1.951 3.83-1.965 3.929-0.002 0.011-0.003 0.024-0.003 0.037 0 0.052 0.015 0.101 0.042 0.141l-0.001-0.001c0.501 0.773 1.39 1.405 1.78 1.66l-0.122 0.291c-0.153 0.358-0.242 0.774-0.242 1.211 0 0.062 0.002 0.123 0.005 0.183l-0-0.008c0.104 1.85 0.176 4.5 0.213 7.877-0.214 0.093-0.383 0.256-0.481 0.458l-0.002 0.006h-0.907c-0.055-0.19-0.13-0.355-0.226-0.507l0.005 0.008c-0.217-0.342-0.569-0.582-0.979-0.646l-0.008-0.001c-0.061-0.010-0.131-0.016-0.203-0.016-0.329 0-0.63 0.12-0.862 0.318l0.002-0.002c-0.123 0.106-0.226 0.232-0.304 0.373l-0.004 0.007c-1.023-0.148-1.909-0.65-2.546-1.374l-0.004-0.005c-0.009-0.010-0.019-0.019-0.030-0.028l-0.001-0c-0.061-1.323-0.424-2.666-1.416-3.614-0.004-0.053-0.008-0.105-0.013-0.159-0.026-0.281-0.094-0.54-0.197-0.779l0.006 0.017c-0.182-0.422-0.409-0.611-0.614-0.686-0.038-0.578-0.114-1.112-0.229-1.633l0.013 0.071c2.499 0.353 4.098-0.239 5.028-0.843 1.155-0.749 1.563-1.667 1.58-1.706 0.013-0.030 0.021-0.066 0.021-0.103 0-0.131-0.098-0.24-0.225-0.256l-0.001-0c-2.046-0.253-4.334-0.237-6.221-0.144-0.157-1.24-0.812-2.302-1.756-2.995l-0.012-0.009c-0.867-0.649-1.861-0.963-2.542-1.111-0.090-0.020-0.193-0.032-0.298-0.032-0.466 0-0.88 0.224-1.139 0.571l-0.003 0.004c-0.873 1.175-1.557 1.492-1.978 1.551-0.402 0.056-0.624-0.11-0.63-0.115-0.044-0.036-0.101-0.058-0.163-0.058-0.143 0-0.258 0.116-0.258 0.258 0 0.011 0.001 0.022 0.002 0.033l-0-0.001c0.025 0.204 0.063 0.386 0.115 0.563l-0.006-0.024c0.147 0.502 0.515 0.896 0.988 1.077l0.011 0.004c0.178 0.070 0.384 0.111 0.599 0.111 0.333 0 0.642-0.097 0.903-0.265l-0.007 0.004c0.217-0.136 0.404-0.241 0.551-0.318l-0.075 1.324c-0.621 0.098-1.183 0.202-1.66 0.308-2.69 0.598-3.822 0.26-3.832 0.257-0.024-0.008-0.052-0.013-0.080-0.013-0.143 0-0.258 0.116-0.258 0.258 0 0.062 0.022 0.119 0.058 0.163l-0-0c1.050 1.288 2.341 1.686 3.534 1.686 0.594-0.005 1.166-0.091 1.709-0.245l-0.045 0.011c-0.036 0.099-0.069 0.218-0.091 0.341l-0.002 0.014c-0.876 0.151-2.636 0.642-3.629 2.205-0.302 0.458-0.482 1.021-0.482 1.625 0 0.235 0.027 0.463 0.078 0.682l-0.004-0.020c0.093 0.378 0.24 0.711 0.435 1.010l-0.008-0.013c-0.248 1.394-0.576 2.611-0.996 3.785l0.050-0.161c-1.071 3.049-0.921 6.88-0.915 7.042zM22.062 1.441c0.424 0.303 1.534 1.138 2.108 1.982-0.065 0.407-0.35 2.046-0.917 3.602-0.166 0.435-0.262 0.938-0.262 1.463 0 0.016 0 0.032 0 0.048l-0-0.002c0.022 1.519 0.059 4.497 0.075 7.633-0.024-0.002-0.048-0.004-0.073-0.004h-0.911c-0.038-3.352-0.102-5.986-0.213-7.831-0.003-0.043-0.004-0.092-0.004-0.142 0-0.468 0.132-0.905 0.36-1.276l-0.006 0.011c0.31-0.534 1.004-1.833 0.938-2.999-0.015-0.293-0.111-0.562-0.266-0.786l0.003 0.005c-0.129-0.188-0.342-0.31-0.584-0.31-0.238 0-0.449 0.118-0.577 0.299l-0.002 0.002c-0.252 0.367-0.436 0.801-0.522 1.269l-0.003 0.021c-0.004 0.017-0.006 0.037-0.006 0.057 0 0.122 0.082 0.226 0.194 0.258l0.002 0c0.018 0.005 0.039 0.007 0.060 0.007 0.126 0 0.23-0.090 0.254-0.209l0-0.002c0.059-0.342 0.167-0.649 0.317-0.929l-0.008 0.016c0.052-0.094 0.15-0.156 0.262-0.156 0.118 0 0.22 0.069 0.269 0.168l0.001 0.002c0.047 0.089 0.078 0.192 0.089 0.302l0 0.003c0.005 0.068 0.008 0.147 0.008 0.227 0 0.225-0.024 0.445-0.068 0.657l0.004-0.021c-0.081 0.27-0.289 0.613-0.826 0.663-0.042 0.004-0.090 0.007-0.139 0.007-0.446 0-0.844-0.204-1.105-0.524l-0.002-0.003c-0.032-0.041-0.063-0.083-0.092-0.125 0.079-0.425 0.466-2.18 1.642-3.385zM21.504 17.11c0-0.238 0.193-0.43 0.431-0.431h1.058c0.359 0 0.65 0.291 0.65 0.65v1.417c-0 0.359-0.291 0.65-0.65 0.65h-1.058c-0.238-0-0.43-0.193-0.431-0.431v-0zM20.116 17.218h0.873v1.74h-1.352c0.092-0.696 0.242-1.313 0.479-1.74zM7.060 9.313c-0.167-0.136-0.202-0.411-0.201-0.509-0-0.012-0-0.025-0-0.039 0-0.345 0.099-0.667 0.271-0.939l-0.004 0.007c0.134-0.029 0.269-0.054 0.405-0.077 0.163 0.211 0.3 0.454 0.401 0.714l0.007 0.020c0.094 0.248 0.323 0.424 0.595 0.438l0.002 0c0.014 0.001 0.028 0.001 0.043 0.001 0.001 0 0.002 0 0.004 0 0.257 0 0.481-0.145 0.592-0.358l0.002-0.004c0.148-0.276 0.26-0.596 0.316-0.934l0.003-0.018c0.747 0.018 1.463 0.109 2.154 0.267l-0.072-0.014c0.149 0.033 0.295 0.062 0.439 0.089 0.025 0.101 0.050 0.204 0.072 0.311-0.128 0.037-0.232 0.074-0.332 0.115l0.021-0.008c-0.094 0.040-0.158 0.131-0.158 0.238 0 0.143 0.116 0.258 0.258 0.258 0.036 0 0.070-0.007 0.102-0.021l-0.002 0.001c0.001-0.001 0.081-0.033 0.2-0.071q0.055 0.374 0.086 0.785h-0.41c-0.002 0-0.004 0-0.007 0-0.443 0-0.836 0.211-1.086 0.537l-0.002 0.003c-0.227 0.305-0.65 0.668-1.378 0.668-0.99 0-1.471-1.209-1.48-1.232-0.032-0.099-0.123-0.169-0.23-0.169-0.023 0-0.045 0.003-0.066 0.009l0.002-0c-0.243 0.051-0.426 0.028-0.545-0.070zM12.922 10.501c0.077 0.178 0.131 0.385 0.151 0.601l0.001 0.008c0.27 2.751-0.873 3.832-1.218 4.091-2.076-0.809-2.855-2.625-2.863-2.643-0.039-0.092-0.126-0.155-0.229-0.159h-0.010c0 0-0 0-0 0-0.1 0-0.187 0.057-0.23 0.141l-0.001 0.001c-0.069 0.131-0.172 0.236-0.297 0.305l-0.004 0.002c-0.28-0.231-0.516-0.504-0.699-0.811l-0.008-0.014c-0.16-0.266-0.255-0.587-0.255-0.931 0-0.179 0.026-0.352 0.074-0.515l-0.003 0.013c0.058-0.197 0.145-0.369 0.258-0.52l-0.003 0.004c0.261 0.462 0.835 1.216 1.794 1.216 0.942 0 1.495-0.477 1.792-0.876 0.156-0.203 0.4-0.332 0.673-0.332 0.002 0 0.005 0 0.007 0h0.682c0.18 0 0.32 0.262 0.388 0.419zM8.495 5.885l1.18-0.17c0.090-0.013 0.159-0.090 0.159-0.184 0-0.062-0.031-0.117-0.078-0.151l-0.001-0c-0.213-0.138-0.471-0.228-0.747-0.246l-0.005-0c-0.271-0.029-0.482-0.249-0.496-0.522l-0-0.001-0.123-2.194c0.145-1.013 1.35-0.566 1.362-0.561 1.105 0.513 2.229 1.453 2.485 3.169-0.33 0.019-0.646 0.041-0.941 0.063-0.132 0.012-0.235 0.123-0.235 0.257 0 0.143 0.116 0.258 0.258 0.258 0.005 0 0.011-0 0.016-0l-0.001 0c1.937-0.145 4.713-0.256 7.189 0.006-1.878 1.643-4.046 1.263-4.046 1.263s-2.571-0.522-5.235-0.428c-1.882 0.066-2.291-0.175-2.369-0.322 0.502-0.082 1.049-0.162 1.629-0.235z"></path>
<path d="M11.845 21.228c-0.132 0.013-0.234 0.123-0.234 0.257 0 0.008 0 0.017 0.001 0.025l-0-0.001q0.007 0.071 0.012 0.143c0.010 0.134 0.121 0.238 0.257 0.239v0c0.006 0 0.013 0 0.020-0.001 0.134-0.010 0.239-0.122 0.239-0.257 0-0.007-0-0.014-0.001-0.020l0 0.001q-0.006-0.077-0.013-0.152c-0.013-0.132-0.123-0.234-0.257-0.234-0.008 0-0.017 0-0.025 0.001l0.001-0z"></path>
<path d="M10.439 8.871c0.107 0.011 0.204 0.029 0.298 0.053l-0.014-0.003c0.021 0.006 0.044 0.009 0.068 0.009 0.143 0 0.258-0.116 0.258-0.258 0-0.118-0.079-0.217-0.187-0.248l-0.002-0c-0.105-0.029-0.232-0.052-0.362-0.066l-0.011-0.001c-0.008-0.001-0.018-0.001-0.027-0.001-0.143 0-0.258 0.116-0.258 0.258 0 0.135 0.104 0.246 0.235 0.257l0.001 0z"></path>
</svg>
