<!-- Generated by IcoMoon.io -->
<svg version="1.1" xmlns="http://www.w3.org/2000/svg" width="26" height="32" viewBox="0 0 26 32">
<path d="M22.584 8.575c-0.111-0.040-0.19-0.145-0.19-0.268 0-0 0-0.001 0-0.001v0-1.714c0.364-0.088 0.634-0.397 0.664-0.774l0-0.003c0.001-0.018 0.002-0.038 0.002-0.059 0-0.227-0.089-0.433-0.233-0.585l0 0c-0.157-0.167-0.38-0.271-0.627-0.272h-1.311c-0.003-0-0.006-0-0.009-0-0.457 0-0.832 0.352-0.869 0.8l-0 0.003c-0.001 0.018-0.002 0.038-0.002 0.059 0 0.227 0.089 0.433 0.233 0.586l-0-0c0.114 0.121 0.261 0.209 0.428 0.248l0.006 0.001v1.711c-0 0.124-0.080 0.23-0.191 0.27l-0.002 0.001c-1.268 0.45-2.159 1.638-2.159 3.035 0 1.166 0.621 2.188 1.551 2.751l0.014 0.008-0.017 0.043c-0.048 0.113-0.076 0.244-0.076 0.382 0 0.218 0.069 0.419 0.187 0.584l-0.002-0.003c0.12 0.169 0.245 0.317 0.381 0.454l-0-0c-0.901 1.361-1.73 2.068-2.134 2.364-0.668-1.957-1.503-4.057-1.957-5.169-0.001-0.002-0.002-0.004-0.003-0.006 0.094-1.275 0.251-2.441 0.5-3.355 0.006-0.020 0.009-0.044 0.009-0.068 0-0.142-0.116-0.258-0.258-0.258-0.022 0-0.043 0.003-0.063 0.008l0.002-0c-0.023 0.006-2.208 0.53-3.58 0.408v-0.515c0.071 0.022 0.144 0.043 0.221 0.064 0.080 0.023 0.172 0.036 0.267 0.036v0c0.001 0 0.001 0 0.002 0 0.196 0 0.379-0.057 0.533-0.155l-0.004 0.002 0.013-0.009c0.356-0.235 0.588-0.633 0.588-1.085 0-0.004-0-0.007-0-0.011v0.001-1.136c0.386-0.061 0.676-0.512 0.676-1.076s-0.29-1.015-0.676-1.076v-0.954c0.017-0.208 0.166-2.437-1.436-2.882-0.021-0.006-0.044-0.009-0.069-0.009-0.114 0-0.21 0.074-0.245 0.176l-0.001 0.002-0.070 0.215c-0.538-0.333-1.746-0.827-3.467-0.062-0.014 0.006-1.367 0.605-2.153 0.49-0.011-0.002-0.024-0.003-0.037-0.003-0.143 0-0.258 0.116-0.258 0.258 0 0.036 0.007 0.069 0.020 0.1l-0.001-0.002c0.016 0.038 0.344 0.815 1.091 1.263-0.253 0.222-0.473 0.472-0.657 0.749l-0.009 0.014c-0.026 0.039-0.041 0.088-0.041 0.139 0 0.11 0.069 0.204 0.166 0.241l0.002 0.001 0.853 0.319c-0.21 0.421-0.39 0.912-0.517 1.424l-0.010 0.050c-0.005 0.019-0.008 0.041-0.008 0.064 0 0.097 0.053 0.181 0.132 0.225l0.001 0.001c0.29 0.151 0.625 0.271 0.979 0.342l0.024 0.004c0.17 0.031 0.365 0.049 0.564 0.049 0.094 0 0.187-0.004 0.28-0.012l-0.012 0.001c0.032 0.074 0.065 0.137 0.103 0.197l-0.004-0.006c0.11 0.208 0.294 0.364 0.516 0.435l0.006 0.002v1.931c-0.66 0.010-2.504-0.011-3.731-0.502-0.028-0.012-0.061-0.018-0.096-0.018-0.143 0-0.258 0.116-0.258 0.258 0 0.018 0.002 0.037 0.006 0.054l-0-0.002c0.004 0.019 0.147 0.73 0.31 2.122-1.264 1.007-4.212 3.606-5.524 6.843-0.059 0.14-0.093 0.302-0.093 0.472 0 0.453 0.242 0.849 0.603 1.066l0.006 0.003c0.107 0.065 0.234 0.131 0.365 0.188l0.021 0.008c-0.113 0.159-0.223 0.342-0.32 0.532l-0.012 0.025c-0.016 0.032-0.025 0.070-0.025 0.111 0 0.133 0.101 0.243 0.23 0.256l0.001 0c1.57 0.161 3.032 1.247 3.596 1.714l-0.153 0.103c-0.272 0.186-0.461 0.475-0.51 0.811l-0.001 0.006-0.021 0.151c-0.005 0.036-0.008 0.078-0.008 0.12 0 0.471 0.382 0.853 0.853 0.853h10.758c0.142-0 0.258-0.116 0.258-0.258 0-0.008-0-0.016-0.001-0.024l0 0.001c-0.003-0.037-0.123-1.378-0.219-3.285 0.124 0.099 0.263 0.193 0.409 0.275l0.015 0.008c0.469 0.281 1.012 0.513 1.586 0.667l0.045 0.010c0.125 0.378 0.25 0.686 0.391 0.986l-0.023-0.053c0.035 0.071 0.1 0.123 0.178 0.14l0.002 0c0.016 0.003 0.033 0.005 0.052 0.005 0 0 0 0 0 0v0c0.065 0 0.124-0.024 0.169-0.063l-0 0c2.698-2.336 3.404-6.205 3.535-7.1 0.525-0.155 0.97-0.447 1.308-0.834l0.003-0.003c0.167-0.187 0.269-0.435 0.269-0.707 0-0.185-0.047-0.359-0.13-0.51l0.003 0.006-0.14-0.258c0.496-0.563 0.8-1.306 0.8-2.12 0-1.398-0.893-2.587-2.14-3.028l-0.022-0.007zM20.619 5.992c-0.058-0.061-0.093-0.143-0.093-0.234 0-0.008 0-0.017 0.001-0.025l-0 0.001c0.021-0.181 0.173-0.32 0.357-0.32 0.002 0 0.004 0 0.006 0h1.311c0 0 0 0 0 0 0.19 0 0.343 0.154 0.343 0.343 0 0.008-0 0.016-0.001 0.024l0-0.001c-0.020 0.181-0.173 0.32-0.357 0.32-0.002 0-0.004-0-0.006-0h-1.311c-0 0-0.001 0-0.002 0-0.098 0-0.187-0.042-0.249-0.108l-0-0zM12.513 6.436c-0.245 0-0.445-0.255-0.445-0.568s0.199-0.568 0.445-0.568 0.444 0.255 0.444 0.568-0.199 0.568-0.444 0.568zM14.408 5.3c0.088 0 0.25 0.216 0.25 0.568s-0.162 0.568-0.25 0.568-0.25-0.216-0.25-0.568 0.162-0.568 0.25-0.568zM10.183 6.962c-0.006-0.015-0.013-0.028-0.021-0.040l0.001 0.001c-0.056-0.084-0.098-0.182-0.12-0.287l-0.001-0.005c-0.004-0.019-0.006-0.042-0.006-0.065 0-0.114 0.054-0.216 0.138-0.28l0.001-0.001c0.059-0.049 0.136-0.079 0.219-0.079 0.050 0 0.098 0.011 0.14 0.030l-0.002-0.001c0.054 0.024 0.101 0.055 0.141 0.093l-0-0c0.048 0.056 0.119 0.092 0.198 0.092 0.059 0 0.113-0.020 0.157-0.053l-0.001 0c0.062-0.049 0.101-0.124 0.101-0.209 0-0.007-0-0.013-0.001-0.020l0 0.001-0.059-1.138c-0.001-0.022-0.002-0.048-0.002-0.075 0-0.549 0.337-1.019 0.816-1.215l0.009-0.003c1.009-0.398 1.632-0.136 1.931 0.078 0.098 0.070 0.16 0.183 0.16 0.311 0 0 0 0 0 0v0 0.73c-0.001 0.084-0.031 0.16-0.081 0.22l0-0.001c-0.101 0.129-0.176 0.283-0.215 0.451l-0.002 0.008c-0.015 0.059-0.067 0.102-0.13 0.102-0 0-0 0-0 0h-0.003c-0 0-0 0-0 0-0.062 0-0.114-0.040-0.132-0.096l-0-0.001c-0.131-0.424-0.487-0.729-0.906-0.729-0.53 0-0.961 0.486-0.961 1.084s0.431 1.084 0.961 1.084c0 0 0.593 0.051 0.959-0.334 0.029-0.032 0.070-0.052 0.116-0.053h0.015c0.051 0 0.097 0.023 0.128 0.059l0 0c0.070 0.078 0.153 0.144 0.245 0.194l0.005 0.002v1.26c0 0.003 0 0.006 0 0.009 0 0.272-0.139 0.512-0.35 0.652l-0.011 0.007c-0.073 0.046-0.161 0.073-0.256 0.073-0.046 0-0.091-0.007-0.133-0.019l0.003 0.001c-0.837-0.229-1.313-0.51-1.565-0.705-0.149-0.118-0.259-0.28-0.311-0.467l-0.002-0.006-0.093-0.339c-0.031-0.11-0.131-0.19-0.249-0.19-0.027 0-0.053 0.004-0.077 0.012l0.002-0c-0.583 0.177-0.744-0.117-0.758-0.146zM10.756 8.753l0.081 0.123c0.115 0.173 0.254 0.32 0.415 0.439l0.005 0.003c0.317 0.23 0.684 0.418 1.078 0.546l0.028 0.008v1.099c-0.663-0.251-1.21-0.68-1.6-1.23l-0.007-0.011zM10.433 10.169c0.507 0.647 1.196 1.129 1.99 1.372l0.028 0.007c0.242 0.419 0.469 0.908 0.652 1.418l0.020 0.064c-0.402 0.926-1.453 3.158-3.060 5.232-0.019-1.789-0.067-3.661-0.172-5.161-0.059-0.656-0.060-2.341 0.541-2.932zM13.715 15.192c-0.626 1.544-2.473 3.843-3.64 5.235 0-0.433-0.001-0.885-0.003-1.348 1.607-1.935 2.73-4.106 3.294-5.326 0.126 0.415 0.25 0.888 0.361 1.417-0.003 0.006-0.007 0.013-0.011 0.020l-0.001 0.001zM6.942 20.001c-0.525-0.669-1.103-1.256-1.742-1.772l-0.021-0.016 1.688-1.462c0.040 0.986 0.067 2.069 0.075 3.25zM6.894 24.212h-1.416c-0 0-0 0-0 0-0.186 0-0.337-0.151-0.337-0.337 0-0.017 0.001-0.033 0.004-0.049l-0 0.002 0.021-0.151c0.028-0.193 0.135-0.357 0.286-0.46l0.002-0.002 0.431-0.291c0.069-0.047 0.114-0.125 0.114-0.214 0-0.074-0.031-0.14-0.080-0.187l-0-0c-0.075-0.071-1.748-1.637-3.758-2.010 0.343-0.542 1.181-1.633 2.555-2.009 0.343 0.267 1.533 1.24 2.217 2.403 0.004 0.006 0.008 0.011 0.012 0.017q-0.002 1.542-0.051 3.287zM9.524 24.212h-2.113c0.239-8.219-0.431-13.106-0.666-14.533 1.065 0.321 2.349 0.386 3.111 0.393-0.641 0.993-0.499 2.829-0.477 3.071 0.261 3.722 0.17 9.765 0.146 11.069zM10.859 24.212h-0.819c0.007-0.398 0.020-1.217 0.028-2.271h0.417c0.207 0 0.374 0.168 0.374 0.374v0zM11.985 24.212h-0.611v-1.966c0-0.169 0.137-0.305 0.305-0.305s0.305 0.137 0.305 0.305v0zM11.68 21.425c-0 0-0 0-0 0-0.229 0-0.435 0.094-0.584 0.245l-0 0c-0.109-0.103-0.244-0.179-0.394-0.217l-0.006-0.001c1.706-1.618 2.868-3.869 3.284-4.752 0.108 0.826 0.17 1.781 0.17 2.75 0 0.014 0 0.027-0 0.041v-0.002 2.964h-1.648v-0.206c-0.001-0.453-0.368-0.821-0.821-0.821h-0zM14.666 24.212v-4.723c0-5.071-1.508-7.775-1.787-8.233v-0.986c1.095 0.086 2.577-0.183 3.289-0.332-0.98 4.283-0.353 12.605-0.213 14.274zM23.56 14.857c-0.24 0.268-0.644 0.611-1.206 0.717-0.111 0.021-0.195 0.112-0.208 0.223l-0 0.001c-0.005 0.043-0.505 4.21-3.122 6.711-0.262-0.648-0.793-2.186-0.686-3.764 0.357-0.229 1.422-1.012 2.576-2.818 0.025-0.039 0.040-0.087 0.040-0.139 0-0.080-0.037-0.152-0.094-0.2l-0-0c-0.171-0.151-0.322-0.319-0.451-0.502l-0.006-0.009c-0.056-0.079-0.090-0.177-0.090-0.283 0-0.067 0.014-0.132 0.038-0.19l-0.001 0.003 0.004-0.009c0.279 0.114 0.603 0.191 0.94 0.215l0.010 0.001q0.117 0.008 0.233 0.008c0.003 0 0.006 0 0.009 0 0.767 0 1.471-0.272 2.019-0.725l-0.005 0.004 0.072 0.132c0.041 0.075 0.066 0.165 0.066 0.26 0 0.14-0.052 0.267-0.138 0.364l0-0.001zM23.373 13.582c-0.48 0.448-1.127 0.724-1.838 0.724-1.441 0-2.618-1.131-2.692-2.554l-0-0.007c-0.002-0.037-0.003-0.080-0.003-0.123 0-1.175 0.747-2.176 1.792-2.553l0.019-0.006c0.317-0.112 0.54-0.409 0.54-0.758v-1.177l0.687-0.179v1.357c0 0 0 0.001 0 0.001 0 0.348 0.222 0.643 0.532 0.754l0.006 0.002c1.065 0.376 1.815 1.374 1.815 2.548 0 0.778-0.329 1.479-0.856 1.971l-0.002 0.001z"></path>
<path d="M21.17 10.443c0 0 0 0 0 0 0.189 0 0.342-0.153 0.342-0.342s-0.153-0.342-0.342-0.342c-0.189 0-0.342 0.153-0.342 0.342 0 0 0 0 0 0v0c0 0.189 0.153 0.342 0.342 0.342v0z"></path>
<path d="M23.54 11.153c-0.080-0.354-0.392-0.614-0.764-0.614-0.043 0-0.085 0.003-0.126 0.010l0.005-0.001c-0.301 0.039-0.573 0.136-0.814 0.279l0.010-0.005c-1.056 0.656-1.901 0.008-1.901 0.008-0.036-0.020-0.079-0.032-0.125-0.032-0.114 0-0.211 0.074-0.245 0.177l-0.001 0.002c-0.064 0.189-0.1 0.407-0.1 0.634 0 1.095 0.855 1.99 1.934 2.053l0.006 0q0.060 0.003 0.119 0.003c1.135-0 2.055-0.92 2.055-2.056 0-0.163-0.019-0.321-0.055-0.473l0.003 0.014zM20.918 12.645c-0 0-0 0-0 0-0.184 0-0.333-0.149-0.333-0.333s0.149-0.333 0.333-0.333c0.184 0 0.333 0.149 0.333 0.333v0c0 0.184-0.149 0.333-0.333 0.333v0zM22.306 12.22c-0 0-0 0-0 0-0.184 0-0.333-0.149-0.333-0.333s0.149-0.333 0.333-0.333c0.184 0 0.333 0.149 0.333 0.333 0 0 0 0 0 0v0c-0 0.184-0.149 0.333-0.333 0.333v0z"></path>
</svg>
