<!-- Generated by IcoMoon.io -->
<svg version="1.1" xmlns="http://www.w3.org/2000/svg" width="26" height="32" viewBox="0 0 26 32">
<path d="M1.83 8.316c0.031 0.033 0.071 0.058 0.116 0.070l0.002 0 7.286 2.038c-0.582 0.246-1.073 0.606-1.464 1.055l-0.004 0.005c-0.397 0.451-0.715 0.984-0.924 1.568l-0.011 0.034c-0.007 0.023-0.012 0.049-0.012 0.076 0 0.12 0.082 0.221 0.192 0.25l0.002 0c0.156 0.040 0.305 0.086 0.449 0.137l-3.53 3.134c-0.314 0.009-0.613 0.040-0.905 0.092l0.036-0.005c-0.12 0.024-0.209 0.128-0.209 0.253 0 0.035 0.007 0.069 0.020 0.099l-0.001-0.002c0.446 1.089 1.047 2.024 1.788 2.829l-0.006-0.007c-0.225 0.256-0.458 0.489-0.704 0.708l-0.008 0.007c-2.006 1.775-2.151 3.735-2.156 3.817-0 0.005-0 0.011-0 0.016 0 0.142 0.115 0.258 0.258 0.258 0 0 0 0 0 0h7.82c0.001 0 0.002 0 0.003 0s0.002 0 0.003 0h11.359c0 0 0 0 0 0 0.142 0 0.258-0.116 0.258-0.258 0-0.006-0-0.012-0.001-0.019l0 0.001c-0.113-1.319-0.303-2.515-0.57-3.681l0.034 0.177c0.339 0.242 0.728 0.451 1.142 0.607l0.035 0.012c0.027 0.010 0.058 0.017 0.091 0.017 0.125 0 0.23-0.089 0.253-0.208l0-0.002c0.023-0.121 0.553-2.973 0.153-7.202l0.62 0.228c0.107 0.040 0.23 0.064 0.359 0.064 0.573 0 1.038-0.465 1.039-1.038v-0c-0-0.407-0.26-0.754-0.624-0.883l-0.007-0.002-1.117-0.386c-0.027-0.321-0.197-0.598-0.445-0.769l-0.003-0.002c-0.527-0.371-1.15-0.649-1.821-0.793l-0.033-0.006c-0.066-0.014-0.142-0.022-0.22-0.022-0.048 0-0.096 0.003-0.142 0.009l0.006-0.001 0.221-1.437c0.002-0.012 0.003-0.025 0.003-0.039 0-0.111-0.070-0.206-0.169-0.242l-0.002-0.001-0.23-0.083c-0.094-0.035-0.203-0.055-0.317-0.055-0.385 0-0.717 0.23-0.864 0.561l-0.002 0.006-0.442 1.016-2.218-0.625c0.069-0.191 0.119-0.412 0.138-0.642l0.001-0.010c0.046-0.556 0.15-1.911 0.163-3.044 0.197 0.022 0.426 0.034 0.658 0.034 0.121 0 0.242-0.003 0.361-0.010l-0.017 0.001c0.137-0.007 0.245-0.12 0.245-0.258 0-0.015-0.001-0.030-0.004-0.045l0 0.002c-0.055-0.263-0.14-0.495-0.253-0.711l0.007 0.015c0.372-0.011 0.869-0.134 1.37-0.579 0.053-0.047 0.086-0.116 0.086-0.193 0-0.122-0.085-0.225-0.199-0.251l-0.002-0c-0.005-0.001-0.482-0.116-0.766-0.433-0.041-0.046-0.089-0.102-0.142-0.166-0.331-0.392-0.89-1.054-1.641-1.381 0.159-0.141 0.294-0.304 0.401-0.486l0.005-0.009c0.022-0.037 0.035-0.082 0.035-0.13 0-0.143-0.116-0.258-0.258-0.258-0.002 0-0.003 0-0.005 0h0c-0.191 0.003-0.764-0.018-1.111-0.161-0.006-0.002-0.011-0.004-0.017-0.006-0.024-0.008-2.406-0.765-3.555 1.587-0.449 0.074-1.663 0.435-2.008 2.174-0.011 0.058-0.247 1.367 0.777 2.198-0.085 0.601 0.002 1.494 0.792 1.693 0.068 0.017 0.146 0.026 0.226 0.026 0.144 0 0.281-0.031 0.404-0.086l-0.006 0.002v1.157l-7.959-2.075-0.45-1.001 6.417 1.807c0.021 0.006 0.045 0.010 0.070 0.010 0.143 0 0.258-0.116 0.258-0.258 0-0.118-0.079-0.217-0.186-0.248l-0.002-0-7.156-2.015c-0.021-0.006-0.045-0.010-0.070-0.010-0.007 0-0.014 0-0.021 0.001l0.001-0c-0.030 0.002-0.734 0.061-1.709 0.554-0.084 0.044-0.141 0.13-0.141 0.23 0 0.024 0.003 0.047 0.009 0.068l-0-0.002c0.18 0.595 0.479 1.108 0.869 1.534l-0.003-0.003zM22.823 13.47l0.050-0.756 0.973 0.336c0.166 0.059 0.283 0.214 0.283 0.397v0c0 0 0 0 0 0 0 0.289-0.234 0.523-0.523 0.523-0.065 0-0.127-0.012-0.184-0.033l0.004 0.001-0.648-0.239c0.023-0.067 0.039-0.146 0.045-0.226l0-0.003zM9.079 16.591c0.019 0.072 0.031 0.155 0.031 0.24 0 0.087-0.012 0.172-0.034 0.253l0.002-0.007c-0.194 0.759-0.514 1.423-0.941 2.005l0.011-0.016c-0.29-0.331-0.549-0.703-0.765-1.101l-0.016-0.032c-0.067-0.131-0.144-0.244-0.235-0.344l0.001 0.001 1.794-1.617c0.041 0.177 0.092 0.386 0.152 0.617zM19.688 18.722c-0.707-0.408-1.703-1.015-2.5-1.625 0.307-0.461 0.581-0.99 0.797-1.548l0.019-0.056c0.507 0.394 1.080 0.785 1.676 1.141l0.079 0.044c-0.041 0.671-0.069 1.373-0.072 2.045zM19.934 14.495c-0.045 0.462-0.094 1.012-0.137 1.602-0.61-0.374-1.435-0.92-1.959-1.429 0.109-1.113-0.448-1.661-0.823-1.9-0.095-0.062-0.175-0.139-0.237-0.229l-0.002-0.003 1.23 0.344 0.059 1.064c0.025 0.466 0.386 0.841 0.844 0.886l0.004 0 0.419 0.042c0.008 0.001 0.017 0.001 0.026 0.001v0c0.129-0 0.235-0.094 0.255-0.217l0-0.001 0.153-0.999c0.077 0.050 0.154 0.096 0.232 0.14zM14.959 11.875c-0.050 0.284-0.201 0.527-0.415 0.693l-0.002 0.002c-0.126 0.098-0.287 0.158-0.462 0.158-0.113 0-0.22-0.025-0.316-0.069l0.005 0.002c-0.409-0.183-0.748-0.46-1-0.804l-0.005-0.007c-0.085-0.114-0.158-0.245-0.213-0.385l-0.004-0.012c-0.018-0.149-0.056-0.284-0.111-0.41l0.004 0.009c-0.013-0.082-0.021-0.178-0.021-0.274v-1.178c0.040 0.036 0.082 0.070 0.127 0.102l0.004 0.003c0.52 0.365 1.12 0.667 1.762 0.876l0.048 0.014c0.005 0.716 0.377 1.11 0.599 1.281zM12.428 12.256c0.298 0.376 0.679 0.674 1.115 0.869l0.019 0.008c0.154 0.069 0.334 0.11 0.523 0.11h0c0.001 0 0.002 0 0.003 0 0.294 0 0.564-0.101 0.777-0.271l-0.003 0.002c0.3-0.235 0.514-0.569 0.593-0.951l0.002-0.011c0.174 0.011 0.333 0.067 0.467 0.158l-0.003-0.002c0.122 0.096 0.217 0.22 0.274 0.364l0.002 0.006c0.11 0.278 0.297 0.505 0.535 0.66l0.005 0.003c0.14 0.089 0.257 0.2 0.349 0.33l0.003 0.004c-0.353 1.044-1.011 1.908-1.867 2.51l-0.016 0.011c-0.142 0.097-0.318 0.154-0.506 0.154-0.141 0-0.274-0.032-0.392-0.089l0.005 0.002c-0.182-0.086-0.359-0.179-0.527-0.278-0.037-0.022-0.083-0.036-0.131-0.036-0.142 0-0.258 0.116-0.258 0.258 0 0.094 0.051 0.177 0.126 0.222l0.001 0.001c0.181 0.107 0.373 0.207 0.569 0.3 0.178 0.085 0.386 0.135 0.606 0.135 0.297 0 0.573-0.091 0.802-0.247l-0.005 0.003c0.789-0.547 1.414-1.277 1.823-2.13l0.014-0.033c0 0.018 0.001 0.039 0.001 0.060 0 0.235-0.030 0.462-0.088 0.679l0.004-0.018c-0.005 0.019-0.481 1.932-2.258 2.91-0.111 0.062-0.243 0.098-0.384 0.098-0.116 0-0.226-0.025-0.325-0.069l0.005 0.002c-1.37-0.605-2.502-1.548-3.273-2.727l-0.306-0.507c0.497-0.392 0.91-0.864 1.225-1.4l0.013-0.023c0.469 0.589 1.016 1.089 1.631 1.495l0.026 0.016c0.226 0.145 0.503 0.231 0.799 0.231 0 0 0 0 0 0v0c0.001 0 0.002 0 0.004 0 0.423 0 0.805-0.179 1.074-0.465l0.001-0.001c0.213-0.224 0.394-0.48 0.535-0.759l0.008-0.018c0.017-0.034 0.028-0.074 0.028-0.116 0-0.143-0.116-0.258-0.258-0.258-0.103 0-0.192 0.060-0.233 0.148l-0.001 0.002c-0.126 0.249-0.278 0.464-0.457 0.652l0.001-0.001c-0.177 0.186-0.427 0.302-0.703 0.302-0.194 0-0.374-0.057-0.525-0.155l0.004 0.002c-0.85-0.537-1.459-1.296-1.672-1.582 0.068-0.145 0.142-0.331 0.206-0.521l0.012-0.040zM11.211 10.692c0.199 0.025 0.375 0.108 0.514 0.232l-0.001-0.001c0.022 0.040 0.289 0.559-0.178 1.205-0.245 0.317-0.512 0.595-0.806 0.843l-0.008 0.007c-0.274 0.242-0.637 0.39-1.034 0.39-0.228 0-0.444-0.049-0.639-0.136l0.010 0.004c-0.553-0.247-1.051-0.732-0.667-1.676 0.606-0.568 1.508-1.025 2.81-0.869zM7.083 14.577c0.779 0.089 1.436 0.286 1.935 0.62l-2.296 2.069c-0.665-0.368-1.396-0.518-2.030-0.566zM3.484 17.233c0.203-0.022 0.439-0.034 0.678-0.034 0.135 0 0.269 0.004 0.402 0.012l-0.018-0.001c0.071 0.012 1.056 0.195 1.518 0.988 0.493 0.834 1.055 1.554 1.697 2.194l0 0c-0.311 0.203-0.576 0.444-0.799 0.721l-0.005 0.007c-0.576-0.314-2.376-1.453-3.474-3.887zM2.345 24.234c0.113-0.569 0.52-1.931 1.941-3.189 0.051-0.045 0.1-0.091 0.15-0.137v0.001s0.673 0.731 1.399 1.146c-0.284 0.504-0.513 1.087-0.659 1.703l-0.009 0.046c-0.061 0.249-0.282 0.432-0.546 0.432-0 0-0.001 0-0.001 0h0zM9.638 22.121l-0.024 0.735c0 0.001 0 0.003 0 0.004s-0 0.003-0 0.004v1.18l-0.002 0.191h-0.231c-0.734-0.001-1.329-0.596-1.33-1.33v-0c-0-0.445-0.162-0.851-0.429-1.165l0.002 0.003-0.258-0.304c0.36-0.433 0.829-0.764 1.364-0.953l0.022-0.007 0.367 0.359c0.32 0.315 0.519 0.753 0.519 1.237 0 0.006-0 0.013-0 0.019v-0.001zM16.192 24.234h-1.369v-1.113h1.369zM16.192 20.541v2.065h-6.045l0.006-0.472 0.092-2.848c0.055-1.701 0.925-2.155 0.925-2.155l-0.001-0.001c1.077 1.193 2.171 1.752 2.78 1.992 0.141 0.057 0.304 0.091 0.475 0.091 0.18 0 0.35-0.037 0.506-0.103l-0.008 0.003c0.585-0.26 1.084-0.615 1.497-1.051l0.002-0.002c-0.020 0.173-0.040 0.322-0.056 0.423-0.109 0.618-0.172 1.331-0.173 2.058v0.001zM20.040 24.234c-0.252-0.001-0.458-0.199-0.471-0.448l-0-0.001c-0.074-1.28-0.249-2.475-0.52-3.634l0.028 0.142 1.35 0.691c0.216 0.904 0.401 2.011 0.514 3.14l0.009 0.11zM20.644 20.009c-0.274-0.312-0.441-0.724-0.441-1.175 0-0.005 0-0.010 0-0.014v0.001c0-1.338 0.108-2.816 0.211-3.923 0.105 0.056 0.246 0.129 0.409 0.212 0.087 0.047 0.732 0.456 0.718 2.307 0 0 0.017 2.389-0.189 3.203-0.268-0.178-0.501-0.38-0.705-0.607l-0.003-0.003zM20.036 11.203c0.093-0.065 0.208-0.103 0.332-0.103 0 0 0.001 0 0.001 0h-0c0.044 0 0.086 0.005 0.127 0.013l-0.004-0.001c0.632 0.135 1.19 0.384 1.678 0.726l-0.014-0.010c0.14 0.094 0.23 0.251 0.23 0.43 0 0.010-0 0.020-0.001 0.030l0-0.001-0.076 1.148c-0.009 0.127-0.072 0.237-0.165 0.31l-0.001 0.001c-0.085 0.068-0.195 0.109-0.314 0.109-0.028 0-0.055-0.002-0.082-0.007l0.003 0c-0.687-0.101-1.301-0.35-1.83-0.715l0.014 0.009c-0.106-0.074-0.176-0.191-0.185-0.326l-0-0.001c-0.007-0.106-0.011-0.229-0.011-0.353 0-0.321 0.026-0.636 0.075-0.943l-0.005 0.034c0.026-0.147 0.109-0.271 0.225-0.35l0.002-0.001zM19.351 9.509c0.167-0.35 0.566-0.221 0.566-0.221s-0.546 1.696-0.648 2.439c-0.001 0.006-0.002 0.014-0.003 0.020l-0.816-0.17zM17.486 10.588l-0.417 0.53-1.699-0.37c0.143-0.044 0.264-0.123 0.358-0.228l0.001-0.001c0.057-0.063 0.113-0.132 0.164-0.203l0.005-0.007q0.050-0.069 0.095-0.142zM11.422 8.129c-0.005-0.002-0.011-0.003-0.017-0.005-0.563-0.141-0.414-1.092-0.389-1.233 0.034-0.079 0.081-0.147 0.138-0.205v0c0.083-0.082 0.198-0.133 0.324-0.133 0.016 0 0.033 0.001 0.049 0.003l-0.002-0c0.134 0.011 0.25 0.082 0.322 0.185l0.001 0.001c0.056 0.084 0.089 0.188 0.089 0.299 0 0.002 0 0.005-0 0.007v-0c0.003 0.14 0.117 0.253 0.258 0.253 0.022 0 0.044-0.003 0.065-0.008l-0.002 0c0.029-0.007 0.606-0.16 0.89-0.848l0.069 0.063c0.046 0.041 0.106 0.067 0.173 0.067 0.035 0 0.067-0.007 0.098-0.019l-0.002 0.001c0.038-0.015 0.784-0.328 0.891-1.406 0.333 0.289 0.853 0.603 1.625 0.768-0.003 0.322-0.013 0.665-0.028 1.005-0.168 0.047-0.315 0.095-0.324 0.097-0.106 0.034-0.181 0.131-0.181 0.246 0 0.143 0.116 0.258 0.258 0.258 0.030 0 0.059-0.005 0.085-0.014l-0.002 0.001c0.001 0 0.057-0.018 0.136-0.042-0.036 0.642-0.081 1.217-0.107 1.532-0.031 0.455-0.214 0.862-0.498 1.176l0.002-0.002c-0.051 0.057-0.124 0.092-0.205 0.092-0.022 0-0.043-0.003-0.064-0.007l0.002 0c-0.848-0.197-1.595-0.535-2.253-0.992l0.021 0.014c-0.21-0.148-0.357-0.374-0.399-0.635l-0.001-0.006c-0.014-0.090-0.025-0.198-0.029-0.308l-0-0.006v-0.261c-0.038-0.263-0.298-0.297-0.449-0.174-0.272 0.3-0.524 0.242-0.547 0.236zM2.804 6.454l0.442 1.014-1.087 0.442c-0.262-0.3-0.474-0.651-0.62-1.034l-0.008-0.024c0.369-0.182 0.797-0.321 1.247-0.395l0.027-0.004z"></path>
<path d="M12.611 14.883c-0.048-0.057-0.119-0.094-0.199-0.094-0.143 0-0.258 0.116-0.258 0.258 0 0.063 0.022 0.12 0.059 0.165l-0-0q0.052 0.063 0.106 0.123c0.047 0.052 0.115 0.084 0.191 0.084 0.143 0 0.258-0.116 0.258-0.258 0-0.066-0.025-0.126-0.066-0.172l0 0q-0.047-0.052-0.091-0.106z"></path>
<path d="M14.157 7.418c0.002 0 0.221 0.046 0.405 0.096 0.019 0.005 0.041 0.008 0.064 0.008 0.143 0 0.258-0.116 0.258-0.258 0-0.117-0.078-0.216-0.185-0.248l-0.002-0c-0.199-0.054-0.424-0.101-0.434-0.103-0.014-0.003-0.031-0.004-0.047-0.004-0.143 0-0.258 0.116-0.258 0.258 0 0.122 0.085 0.224 0.198 0.251l0.002 0z"></path>
</svg>
