<!-- Generated by IcoMoon.io -->
<svg version="1.1" xmlns="http://www.w3.org/2000/svg" width="26" height="32" viewBox="0 0 26 32">
<path d="M24.955 18.358s0 0.064-0.006 0.175c-0.070-2.229-0.906-3.482-1.435-4.853-0.772-2.148-0.943-4.699-0.923-6.598 0.377-0.172 0.634-0.545 0.635-0.978v-1.543c-0.001-0.423-0.246-0.789-0.603-0.963l-0.006-0.003 0.064-0.478h0.268c0.342-0.006 0.342-0.515 0-0.52h-0.198l0.050-0.371h0.331c0.342-0.006 0.342-0.515 0-0.52h-0.262c0.007-0.039 0.010-0.085 0.010-0.131 0-0.459-0.37-0.831-0.828-0.835h-1.071c-0.458 0.004-0.828 0.376-0.828 0.835 0 0.046 0.004 0.092 0.011 0.136l-0.001-0.005h-0.224c-0.342 0.006-0.342 0.515 0 0.52h0.295l0.050 0.371h-0.162c-0.342 0.006-0.342 0.515 0 0.52h0.232l0.050 0.371h-1.049c-0.427 0.001-0.773 0.347-0.774 0.774v1.182c0.001 0.427 0.347 0.774 0.774 0.774h0.458c0.042 0.37 0.266 0.679 0.579 0.839l0.006 0.003c-1.412 2.229-3.557 2.63-4.894 2.634 0.098-0.231 0.471-1.8-0.235-1.482-1.703 1.038-2.84 0.013-4.454 1.211q-0.057-0.179-0.119-0.351c1.164-0.762 0.517-2.525-0.852-2.327-0.036-0.238-0.129-0.476-0.15-0.712-0.006-0.037-0.009-0.079-0.009-0.123 0-0.31 0.172-0.579 0.426-0.718l0.004-0.002c0.449-0.252 0.911-0.027 1.261 0.415-0.324 0.618 0.168 1.415 0.87 1.397 1.133-0.021 1.331-1.6 0.252-1.906-0.114-0.486-0.367-1.282-0.89-1.923-1.248-1.591-3.904-0.824-4.185 1.148-1.986-2.942-5.402-2.176-6.083 0.324-1.149 0.229-1.009 1.898 0.172 1.924 0.528-0.001 0.957-0.422 0.969-0.947l0-0.001c0.452-0.392 0.784-0.569 0.986-0.527 0.372 0.045 0.761 1.233 1.073 1.727-1.9-0.122-2.828 1.52-2.897 1.646-0.78 1.404-0.325 3.196-0.054 3.991-0.54 0.605-0.083 1.613 0.736 1.602 1.006-0.002 1.334-1.358 0.459-1.825-0.098-1.066 0.508-3.223 2.129-2.327 0.086 0.048 0.186 0.084 0.292 0.104l0.006 0.001c-0.479 1.19 0.857 2.226 1.917 1.505 0.070 0.070 0.139 0.141 0.213 0.207-0.937 0.436-1.612 1.271-1.772 2.33-0.109 0.692-0.448 1.597-1.441 1.98-0.080 0.031-0.139 0.099-0.159 0.182l-0 0.002c-0.087 0.235 0.443 0.664 1.376 0.824-0.385 1.119-0.844 2.668-1.040 4.162-0.012 0.089-0.019 0.192-0.019 0.297 0 0.827 0.431 1.553 1.081 1.965l0.009 0.006c0.927 0.65 3.807 1.235 5.075 1.367 0.065 0.013 0.139 0.021 0.215 0.021 0.041 0 0.081-0.002 0.121-0.006l-0.005 0h6.312c0.144 0 0.26-0.116 0.26-0.26 0-0 0-0 0-0v0-1.719c0.017-0.238 0.215-3.388-0.89-6.696 0.479-0.225 0.89-0.507 1.247-0.845l-0.002 0.002c0.051-0.048 0.083-0.115 0.083-0.19 0-0.115-0.075-0.213-0.179-0.247l-0.002-0.001c-0.701-0.274-1.27-0.756-1.646-1.37l-0.008-0.015c0.137-0.082 0.253-0.163 0.363-0.249l-0.008 0.006c1.466-0.095 2.719-0.544 3.739-1.337-0.24 1.036-0.569 1.945-0.993 2.8l0.033-0.074c-0.319 0.516-0.849 2.060-0.984 3.699 0 0-1.095 5.976 3.454 5.976 0-0 4.164 0.271 3.393-5.977zM19.808 5.7h-0.451c-0.14-0-0.254-0.114-0.254-0.254v-1.182c0-0.14 0.114-0.254 0.254-0.254h0.451zM12.698 6.034c-0.016 0.593-0.885 0.593-0.9 0 0.016-0.594 0.885-0.594 0.9-0zM2.327 13.541c-0.593-0.016-0.593-0.885 0-0.9 0.594 0.016 0.594 0.885 0 0.9zM10.703 7.651c0.051 0.097 0.081 0.213 0.081 0.335 0 0.237-0.112 0.447-0.285 0.582l-0.002 0.001c-0.209-0.485-0.448-0.902-0.729-1.288l0.013 0.019c0.079-0.032 0.172-0.051 0.268-0.051 0.284 0 0.53 0.161 0.652 0.397l0.002 0.004zM1.513 6.051c-0.593-0.016-0.593-0.885 0-0.9 0.594 0.016 0.593 0.885 0 0.9zM4.798 6.2c-0.599-1.386-1.117-2.23-2.47-1.125-0.11-0.169-0.267-0.299-0.452-0.374l-0.007-0.002c0.227-0.704 0.893-1.888 2.796-1.728 2.061 0.173 3.514 3.638 3.839 4.483l-1.629 1.124c-0.407-0.319-1.567-1.29-2.076-2.377zM6.724 11.147c-0.736 0.393-1.459-0.549-0.882-1.157 0.311 0.425 0.612 0.796 0.93 1.15l-0.012-0.013zM6.237 9.65l3.068-2.116c0.424 0.558 0.783 1.291 1.042 2.135 0.478 1.593-1.477 2.795-2.684 1.646-0.512-0.503-0.98-1.047-1.401-1.628l-0.026-0.037zM7.384 20.679c0.096-0.559 0.222-1.047 0.383-1.519l-0.020 0.068c0.63-0.207 1.158-0.582 1.546-1.073l0.005-0.007c0.059 0.238 0.093 0.511 0.093 0.793 0 0.349-0.053 0.686-0.15 1.003l0.006-0.024c-0.008 0.023-0.012 0.050-0.012 0.078 0 0.072 0.029 0.136 0.076 0.183v0c0.194 0.17 0.37 0.026 0.816-0.167 0.061 0.6 0.103 1.209 0.126 1.819l-1.338-0.163c-0.028-0.004-0.776-0.112-1.33-0.421-0.186-0.104-0.235-0.369-0.201-0.571zM10.748 24.335c-0.302-0.001-1.063-0.104-1.942-0.295-0.048-0.317-0.112-1.087 0.226-1.83l1.307 0.159c0.287 0.034 0.514 0.252 0.562 0.532l0.001 0.004 0.158 0.915c0.010 0.034 0.016 0.073 0.016 0.114 0 0.197-0.139 0.362-0.324 0.401l-0.003 0zM15.501 13.167c-0.094 0.041-0.159 0.133-0.159 0.241 0 0.042 0.010 0.081 0.027 0.116l-0.001-0.002c0.373 0.733 0.951 1.316 1.658 1.686l0.021 0.010c-2.030 1.589-4.142 0.409-4.235 0.356-0.037-0.022-0.082-0.035-0.13-0.035-0.138 0-0.251 0.107-0.26 0.243l-0 0.001c-0.145 2.34-1.756 3.4-2.558 3.785 0.031-0.187 0.049-0.403 0.049-0.622 0-0.537-0.107-1.048-0.301-1.515l0.010 0.026c-0.042-0.090-0.132-0.152-0.236-0.152-0.094 0-0.177 0.050-0.223 0.126l-0.001 0.001c-0.75 1.257-1.855 1.448-2.45 1.45 0.397-0.642 0.661-1.407 0.734-2.226l0.001-0.020c0-0.004 0-0.008 0-0.012 0-0.144-0.117-0.26-0.26-0.26-0.025 0-0.050 0.004-0.073 0.010l0.002-0c-1.24 0.352-2 0.143-2.386-0.054 2.086-1.342 0.545-3.26 3.124-4.246 0.131 0.065 0.285 0.121 0.445 0.158l0.014 0.003c0.445 0.934 1.557 2.513 3.742 2.793 0.141-0.001 0.255-0.112 0.26-0.252v-0c0.003-0.107 0.059-2.606-1.411-4.264 0.021-0.111 0.032-0.239 0.032-0.37 0-0.049-0.002-0.098-0.005-0.147l0 0.007c0.528-0.477 1.264-0.749 1.939-0.714 0.078 0.004 0.17 0.007 0.262 0.007 0.732 0 1.427-0.16 2.052-0.446l-0.031 0.013c-0.083 1.013-0.786 1.768-0.794 1.776-0.044 0.047-0.071 0.11-0.071 0.179 0 0.098 0.054 0.184 0.134 0.229l0.001 0.001c0.948 0.514 1.991 0.566 2.559 0.547-0.308 0.684-0.824 1.229-1.467 1.566l-0.018 0.009zM20.524 20.333h1.985c0.059 0 0.107 0.048 0.107 0.107v0 0.252c-0 0.059-0.048 0.107-0.107 0.107v0h-1.985c-0.059-0-0.107-0.048-0.107-0.107v0-0.252c0-0 0-0 0-0 0-0.059 0.048-0.107 0.107-0.107v0zM20.888 15.151v-6.709l0.369-0.1v6.749c-0.142 0.015-0.267 0.036-0.39 0.064l0.021-0.004zM21.257 19.11v0.703h-0.294v-0.763c0.082 0.025 0.182 0.046 0.284 0.059l0.010 0.001zM22.071 19.050v0.763h-0.294v-0.703c0.112-0.015 0.212-0.036 0.308-0.064l-0.014 0.004zM21.777 15.091v-6.926l0.369-0.1v7.086c-0.102-0.024-0.227-0.046-0.355-0.059l-0.014-0.001zM20.982 1.26h1.070c0.171 0.001 0.308 0.139 0.308 0.31 0 0.014-0.001 0.028-0.003 0.041l0-0.002-0.252 1.879h-1.176l-0.082-0.609c0.001-0.008 0.002-0.018 0.002-0.028 0-0.032-0.006-0.062-0.018-0.089l0.001 0.002-0.156-1.155c-0.002-0.012-0.003-0.026-0.003-0.040 0-0.171 0.138-0.309 0.308-0.31h0zM20.328 6.058h1.189c0.001 0 0.003 0 0.004 0 0.144 0 0.26-0.117 0.26-0.26s-0.116-0.26-0.26-0.26c-0.002 0-0.003 0-0.005 0h-1.189v-0.529h1.189c0.001 0 0.003 0 0.004 0 0.144 0 0.26-0.117 0.26-0.26s-0.116-0.26-0.26-0.26c-0.002 0-0.003 0-0.005 0h-1.189v-0.478h1.825c0.305 0 0.552 0.247 0.552 0.552v1.543c-0 0.305-0.247 0.552-0.552 0.552h-1.273c-0.306-0.002-0.554-0.251-0.554-0.557 0-0.015 0.001-0.029 0.002-0.043l-0 0.002zM24.334 20.287c-0.551 3.308-5.083 3.31-5.634 0-0.484-3.993 1.012-4.998 1.688-7.563v2.695c-1.205 0.783-1.187 2.65 0.054 3.4v1.001c-0.309 0.042-0.545 0.304-0.546 0.621v0.252c0 0.346 0.281 0.627 0.627 0.627h1.985c0.346-0 0.627-0.281 0.627-0.627v-0.252c-0.001-0.317-0.236-0.579-0.542-0.621l-0.003-0v-1.001c1.244-0.752 1.259-2.625 0.047-3.405v-2.719c0.67 2.582 2.185 3.595 1.696 7.592z"></path>
<path d="M8.017 10.302c0.348-0.006 0.348-0.523 0-0.529-0.348 0.006-0.348 0.523 0 0.529z"></path>
<path d="M9.092 9.638c0.348-0.006 0.348-0.523 0-0.529-0.348 0.006-0.348 0.523 0 0.529z"></path>
</svg>
